<?xml version="1.0" encoding="utf-8"?>
<svg xmlns="http://www.w3.org/2000/svg" viewBox="-6 -6 54 54" width="48px" height="48px">
	<g transform="matrix(1.3333333730697632, 0, 0, 1.3333333730697632, 0, 0)" id="object-0">
		<g transform="matrix(0.075 0 0 0.075 0 0)">
			<path transform="matrix(1 0 0 1 150 50)" d="M0 0C 6.6 0 13.2 0 20 0C 20 6.6 20 13.2 20 20C 23.3 20 26.6 20 30 20C 30 26.6 30 33.2 30 40C 33.3 40 36.6 40 40 40C 40 36.7 40 33.4 40 30C 49.9 30 59.8 30 70 30C 70 26.7 70 23.4 70 20C 73.3 20 76.6 20 80 20C 80 16.7 80 13.4 80 10C 76.7 10 73.4 10 70 10C 70 6.7 70 3.4 70 0C 79.9 0 89.8 0 100 0C 100 3.3 100 6.6 100 10C 103.3 10 106.6 10 110 10C 110 13.3 110 16.6 110 20C 113.3 20 116.6 20 120 20C 120 23.3 120 26.6 120 30C 126.6 30 133.2 30 140 30C 140 33.3 140 36.6 140 40C 143.3 40 146.6 40 150 40C 150 33.4 150 26.8 150 20C 153.3 20 156.6 20 160 20C 160 13.4 160 6.8 160 0C 166.6 0 173.2 0 180 0C 180 3.3 180 6.6 180 10C 183.3 10 186.6 10 190 10C 190 19.9 190 29.8 190 40C 196.6 40 203.2 40 210 40C 210 43.3 210 46.6 210 50C 216.6 50 223.2 50 230 50C 230 53.3 230 56.6 230 60C 236.6 60 243.2 60 250 60C 250 63.3 250 66.6 250 70C 256.6 70 263.2 70 270 70C 270 73.3 270 76.6 270 80C 273.3 80 276.6 80 280 80C 280 83.3 280 86.6 280 90C 283.3 90 286.6 90 290 90C 290 96.6 290 103.2 290 110C 286.7 110 283.4 110 280 110C 280 116.6 280 123.2 280 130C 276.7 130 273.4 130 270 130C 270 133.3 270 136.6 270 140C 263.4 140 256.8 140 250 140C 250 143.3 250 146.6 250 150C 240.1 150 230.2 150 220 150C 220 146.7 220 143.4 220 140C 216.7 140 213.4 140 210 140C 210 136.7 210 133.4 210 130C 206.7 130 203.4 130 200 130C 200 149.8 200 169.6 200 190C 196.7 190 193.4 190 190 190C 190 196.6 190 203.2 190 210C 186.7 210 183.4 210 180 210C 180 213.3 180 216.6 180 220C 176.7 220 173.4 220 170 220C 170 223.3 170 226.6 170 230C 160.1 230 150.2 230 140 230C 140 233.3 140 236.6 140 240C 143.3 240 146.6 240 150 240C 150 243.3 150 246.6 150 250C 156.6 250 163.2 250 170 250C 170 246.7 170 243.4 170 240C 176.6 240 183.2 240 190 240C 190 236.7 190 233.4 190 230C 193.3 230 196.6 230 200 230C 200 223.4 200 216.8 200 210C 203.3 210 206.6 210 210 210C 210 203.4 210 196.8 210 190C 216.6 190 223.2 190 230 190C 230 193.3 230 196.6 230 200C 233.3 200 236.6 200 240 200C 240 203.3 240 206.6 240 210C 249.9 210 259.8 210 270 210C 270 213.3 270 216.6 270 220C 279.9 220 289.8 220 300 220C 300 226.6 300 233.2 300 240C 293.4 240 286.8 240 280 240C 280 243.3 280 246.6 280 250C 273.4 250 266.8 250 260 250C 260 256.6 260 263.2 260 270C 256.7 270 253.4 270 250 270C 250 273.3 250 276.6 250 280C 236.8 280 223.6 280 210 280C 210 283.3 210 286.6 210 290C 200.1 290 190.2 290 180 290C 180 293.3 180 296.6 180 300C 186.6 300 193.2 300 200 300C 200 303.3 200 306.6 200 310C 203.3 310 206.6 310 210 310C 210 316.6 210 323.2 210 330C 213.3 330 216.6 330 220 330C 220 339.9 220 349.8 220 360C 223.3 360 226.6 360 230 360C 230 369.9 230 379.8 230 390C 226.7 390 223.4 390 220 390C 220 393.3 220 396.6 220 400C 210.1 400 200.2 400 190 400C 190 396.7 190 393.4 190 390C 186.7 390 183.4 390 180 390C 180 386.7 180 383.4 180 380C 170.1 380 160.2 380 150 380C 150 393.2 150 406.4 150 420C 146.7 420 143.4 420 140 420C 140 423.3 140 426.6 140 430C 126.8 430 113.6 430 100 430C 100 426.7 100 423.4 100 420C 93.4 420 86.8 420 80 420C 80 423.3 80 426.6 80 430C 66.8 430 53.6 430 40 430C 40 426.7 40 423.4 40 420C 36.7 420 33.4 420 30 420C 30 406.8 30 393.6 30 380C 20.1 380 10.2 380 0 380C 0 383.3 0 386.6 0 390C -3.3 390 -6.6 390 -10 390C -10 393.3 -10 396.6 -10 400C -19.9 400 -29.8 400 -40 400C -40 396.7 -40 393.4 -40 390C -43.3 390 -46.6 390 -50 390C -50 380.1 -50 370.2 -50 360C -46.7 360 -43.4 360 -40 360C -40 350.1 -40 340.2 -40 330C -36.7 330 -33.4 330 -30 330C -30 323.4 -30 316.8 -30 310C -26.7 310 -23.4 310 -20 310C -20 306.7 -20 303.4 -20 300C -13.4 300 -6.8 300 0 300C 0 296.7 0 293.4 0 290C -9.9 290 -19.8 290 -30 290C -30 286.7 -30 283.4 -30 280C -43.2 280 -56.4 280 -70 280C -70 276.7 -70 273.4 -70 270C -73.3 270 -76.6 270 -80 270C -80 263.4 -80 256.8 -80 250C -86.6 250 -93.2 250 -100 250C -100 246.7 -100 243.4 -100 240C -106.6 240 -113.2 240 -120 240C -120 233.4 -120 226.8 -120 220C -110.1 220 -100.2 220 -90 220C -90 216.7 -90 213.4 -90 210C -80.1 210 -70.2 210 -60 210C -60 206.7 -60 203.4 -60 200C -56.7 200 -53.4 200 -50 200C -50 196.7 -50 193.4 -50 190C -43.4 190 -36.8 190 -30 190C -30 196.6 -30 203.2 -30 210C -26.7 210 -23.4 210 -20 210C -20 216.6 -20 223.2 -20 230C -16.7 230 -13.4 230 -10 230C -10 233.3 -10 236.6 -10 240C -3.4 240 3.2 240 10 240C 10 243.3 10 246.6 10 250C 16.6 250 23.2 250 30 250C 30 246.7 30 243.4 30 240C 33.3 240 36.6 240 40 240C 40 236.7 40 233.4 40 230C 33.4 230 26.8 230 20 230C 20 226.7 20 223.4 20 220C 13.4 220 6.8 220 0 220C 0 216.7 0 213.4 0 210C -3.3 210 -6.6 210 -10 210C -10 203.4 -10 196.8 -10 190C -13.3 190 -16.6 190 -20 190C -20 170.2 -20 150.4 -20 130C -23.3 130 -26.6 130 -30 130C -30 133.3 -30 136.6 -30 140C -33.3 140 -36.6 140 -40 140C -40 143.3 -40 146.6 -40 150C -49.9 150 -59.8 150 -70 150C -70 146.7 -70 143.4 -70 140C -76.6 140 -83.2 140 -90 140C -90 136.7 -90 133.4 -90 130C -93.3 130 -96.6 130 -100 130C -100 123.4 -100 116.8 -100 110C -103.3 110 -106.6 110 -110 110C -110 103.4 -110 96.8 -110 90C -106.7 90 -103.4 90 -100 90C -100 86.7 -100 83.4 -100 80C -96.7 80 -93.4 80 -90 80C -90 76.7 -90 73.4 -90 70C -83.4 70 -76.8 70 -70 70C -70 66.7 -70 63.4 -70 60C -63.4 60 -56.8 60 -50 60C -50 56.7 -50 53.4 -50 50C -43.4 50 -36.8 50 -30 50C -30 46.7 -30 43.4 -30 40C -23.4 40 -16.8 40 -10 40C -10 30.1 -10 20.2 -10 10C -6.7 10 -3.4 10 0 10C 0 6.7 0 3.4 0 0z" stroke="none" fill="#FDFDFD" fill-rule="nonzero"/>
			<path transform="matrix(1 0 0 1 100 240)" d="M0 0C 6.6 0 13.2 0 20 0C 20 6.6 20 13.2 20 20C 23.3 20 26.6 20 30 20C 30 26.6 30 33.2 30 40C 33.3 40 36.6 40 40 40C 40 43.3 40 46.6 40 50C 46.6 50 53.2 50 60 50C 60 53.3 60 56.6 60 60C 66.6 60 73.2 60 80 60C 80 56.7 80 53.4 80 50C 86.6 50 93.2 50 100 50C 100 53.3 100 56.6 100 60C 106.6 60 113.2 60 120 60C 120 66.6 120 73.2 120 80C 123.3 80 126.6 80 130 80C 130 83.3 130 86.6 130 90C 136.6 90 143.2 90 150 90C 150 86.7 150 83.4 150 80C 153.3 80 156.6 80 160 80C 160 73.4 160 66.8 160 60C 166.6 60 173.2 60 180 60C 180 56.7 180 53.4 180 50C 186.6 50 193.2 50 200 50C 200 53.3 200 56.6 200 60C 206.6 60 213.2 60 220 60C 220 56.7 220 53.4 220 50C 226.6 50 233.2 50 240 50C 240 46.7 240 43.4 240 40C 243.3 40 246.6 40 250 40C 250 33.4 250 26.8 250 20C 253.3 20 256.6 20 260 20C 260 13.4 260 6.8 260 0C 266.6 0 273.2 0 280 0C 280 3.3 280 6.6 280 10C 283.3 10 286.6 10 290 10C 290 13.3 290 16.6 290 20C 299.9 20 309.8 20 320 20C 320 23.3 320 26.6 320 30C 329.9 30 339.8 30 350 30C 350 36.6 350 43.2 350 50C 343.4 50 336.8 50 330 50C 330 53.3 330 56.6 330 60C 323.4 60 316.8 60 310 60C 310 66.6 310 73.2 310 80C 306.7 80 303.4 80 300 80C 300 83.3 300 86.6 300 90C 286.8 90 273.6 90 260 90C 260 93.3 260 96.6 260 100C 250.1 100 240.2 100 230 100C 230 103.3 230 106.6 230 110C 236.6 110 243.2 110 250 110C 250 113.3 250 116.6 250 120C 253.3 120 256.6 120 260 120C 260 126.6 260 133.2 260 140C 263.3 140 266.6 140 270 140C 270 149.9 270 159.8 270 170C 273.3 170 276.6 170 280 170C 280 179.9 280 189.8 280 200C 276.7 200 273.4 200 270 200C 270 203.3 270 206.6 270 210C 260.1 210 250.2 210 240 210C 240 206.7 240 203.4 240 200C 236.7 200 233.4 200 230 200C 230 196.7 230 193.4 230 190C 220.1 190 210.2 190 200 190C 200 203.2 200 216.4 200 230C 196.7 230 193.4 230 190 230C 190 233.3 190 236.6 190 240C 176.8 240 163.6 240 150 240C 150 236.7 150 233.4 150 230C 143.4 230 136.8 230 130 230C 130 233.3 130 236.6 130 240C 116.8 240 103.6 240 90 240C 90 236.7 90 233.4 90 230C 86.7 230 83.4 230 80 230C 80 216.8 80 203.6 80 190C 70.1 190 60.2 190 50 190C 50 193.3 50 196.6 50 200C 46.7 200 43.4 200 40 200C 40 203.3 40 206.6 40 210C 30.1 210 20.2 210 10 210C 10 206.7 10 203.4 10 200C 6.7 200 3.4 200 0 200C 0 190.1 0 180.2 0 170C 3.3 170 6.6 170 10 170C 10 160.1 10 150.2 10 140C 13.3 140 16.6 140 20 140C 20 133.4 20 126.8 20 120C 23.3 120 26.6 120 30 120C 30 116.7 30 113.4 30 110C 36.6 110 43.2 110 50 110C 50 106.7 50 103.4 50 100C 40.1 100 30.2 100 20 100C 20 96.7 20 93.4 20 90C 6.8 90 -6.4 90 -20 90C -20 86.7 -20 83.4 -20 80C -23.3 80 -26.6 80 -30 80C -30 73.4 -30 66.8 -30 60C -36.6 60 -43.2 60 -50 60C -50 56.7 -50 53.4 -50 50C -56.6 50 -63.2 50 -70 50C -70 43.4 -70 36.8 -70 30C -60.1 30 -50.2 30 -40 30C -40 26.7 -40 23.4 -40 20C -30.1 20 -20.2 20 -10 20C -10 16.7 -10 13.4 -10 10C -6.7 10 -3.4 10 0 10C 0 6.7 0 3.4 0 0z" stroke="none" fill="#F8DBCB" fill-rule="nonzero"/>
			<path transform="matrix(1 0 0 1 100 240)" d="M0 0C 6.6 0 13.2 0 20 0C 20 6.6 20 13.2 20 20C 23.3 20 26.6 20 30 20C 30 26.6 30 33.2 30 40C 33.3 40 36.6 40 40 40C 40 43.3 40 46.6 40 50C 46.6 50 53.2 50 60 50C 60 53.3 60 56.6 60 60C 66.6 60 73.2 60 80 60C 80 56.7 80 53.4 80 50C 86.6 50 93.2 50 100 50C 100 53.3 100 56.6 100 60C 106.6 60 113.2 60 120 60C 120 66.6 120 73.2 120 80C 123.3 80 126.6 80 130 80C 130 83.3 130 86.6 130 90C 136.6 90 143.2 90 150 90C 150 86.7 150 83.4 150 80C 153.3 80 156.6 80 160 80C 160 73.4 160 66.8 160 60C 166.6 60 173.2 60 180 60C 180 56.7 180 53.4 180 50C 186.6 50 193.2 50 200 50C 200 56.6 200 63.2 200 70C 196.7 70 193.4 70 190 70C 190 73.3 190 76.6 190 80C 186.7 80 183.4 80 180 80C 180 86.6 180 93.2 180 100C 183.3 100 186.6 100 190 100C 190 103.3 190 106.6 190 110C 199.9 110 209.8 110 220 110C 220 119.9 220 129.8 220 140C 216.7 140 213.4 140 210 140C 210 149.9 210 159.8 210 170C 206.7 170 203.4 170 200 170C 200 173.3 200 176.6 200 180C 196.7 180 193.4 180 190 180C 190 183.3 190 186.6 190 190C 180.1 190 170.2 190 160 190C 160 186.7 160 183.4 160 180C 163.3 180 166.6 180 170 180C 170 176.7 170 173.4 170 170C 166.7 170 163.4 170 160 170C 160 163.4 160 156.8 160 150C 163.3 150 166.6 150 170 150C 170 146.7 170 143.4 170 140C 166.7 140 163.4 140 160 140C 160 136.7 160 133.4 160 130C 156.7 130 153.4 130 150 130C 150 126.7 150 123.4 150 120C 143.4 120 136.8 120 130 120C 130 139.8 130 159.6 130 180C 133.3 180 136.6 180 140 180C 140 183.3 140 186.6 140 190C 136.7 190 133.4 190 130 190C 130 193.3 130 196.6 130 200C 126.7 200 123.4 200 120 200C 120 196.7 120 193.4 120 190C 110.1 190 100.2 190 90 190C 90 186.7 90 183.4 90 180C 86.7 180 83.4 180 80 180C 80 173.4 80 166.8 80 160C 83.3 160 86.6 160 90 160C 90 153.4 90 146.8 90 140C 86.7 140 83.4 140 80 140C 80 136.7 80 133.4 80 130C 76.7 130 73.4 130 70 130C 70 133.3 70 136.6 70 140C 66.7 140 63.4 140 60 140C 60 133.4 60 126.8 60 120C 56.7 120 53.4 120 50 120C 50 113.4 50 106.8 50 100C 40.1 100 30.2 100 20 100C 20 96.7 20 93.4 20 90C 6.8 90 -6.4 90 -20 90C -20 86.7 -20 83.4 -20 80C -23.3 80 -26.6 80 -30 80C -30 73.4 -30 66.8 -30 60C -36.6 60 -43.2 60 -50 60C -50 56.7 -50 53.4 -50 50C -56.6 50 -63.2 50 -70 50C -70 43.4 -70 36.8 -70 30C -60.1 30 -50.2 30 -40 30C -40 26.7 -40 23.4 -40 20C -30.1 20 -20.2 20 -10 20C -10 16.7 -10 13.4 -10 10C -6.7 10 -3.4 10 0 10C 0 6.7 0 3.4 0 0z" stroke="none" fill="#FDFDFD" fill-rule="nonzero"/>
			<path transform="matrix(1 0 0 1 310 50)" d="M0 0C 6.6 0 13.2 0 20 0C 20 3.3 20 6.6 20 10C 23.3 10 26.6 10 30 10C 30 19.9 30 29.8 30 40C 36.6 40 43.2 40 50 40C 50 43.3 50 46.6 50 50C 56.6 50 63.2 50 70 50C 70 53.3 70 56.6 70 60C 76.6 60 83.2 60 90 60C 90 63.3 90 66.6 90 70C 96.6 70 103.2 70 110 70C 110 73.3 110 76.6 110 80C 113.3 80 116.6 80 120 80C 120 83.3 120 86.6 120 90C 123.3 90 126.6 90 130 90C 130 96.6 130 103.2 130 110C 126.7 110 123.4 110 120 110C 120 116.6 120 123.2 120 130C 116.7 130 113.4 130 110 130C 110 133.3 110 136.6 110 140C 103.4 140 96.8 140 90 140C 90 143.3 90 146.6 90 150C 80.1 150 70.2 150 60 150C 60 146.7 60 143.4 60 140C 56.7 140 53.4 140 50 140C 50 136.7 50 133.4 50 130C 46.7 130 43.4 130 40 130C 40 136.6 40 143.2 40 150C 36.7 150 33.4 150 30 150C 30 153.3 30 156.6 30 160C 13.5 160 -3 160 -20 160C -20 156.7 -20 153.4 -20 150C -23.3 150 -26.6 150 -30 150C -30 146.7 -30 143.4 -30 140C -36.6 140 -43.2 140 -50 140C -50 136.7 -50 133.4 -50 130C -53.3 130 -56.6 130 -60 130C -60 126.7 -60 123.4 -60 120C -63.3 120 -66.6 120 -70 120C -70 106.8 -70 93.6 -70 80C -66.7 80 -63.4 80 -60 80C -60 73.4 -60 66.8 -60 60C -56.7 60 -53.4 60 -50 60C -50 56.7 -50 53.4 -50 50C -46.7 50 -43.4 50 -40 50C -40 46.7 -40 43.4 -40 40C -30.1 40 -20.2 40 -10 40C -10 33.4 -10 26.8 -10 20C -6.7 20 -3.4 20 0 20C 0 13.4 0 6.8 0 0z" stroke="none" fill="#3A3E49" fill-rule="nonzero"/>
			<path transform="matrix(1 0 0 1 200 190)" d="M0 0C 26.4 0 52.8 0 80 0C 80 3.3 80 6.6 80 10C 83.3 10 86.6 10 90 10C 90 13.3 90 16.6 90 20C 106.5 20 123 20 140 20C 140 16.7 140 13.4 140 10C 143.3 10 146.6 10 150 10C 150 23.2 150 36.4 150 50C 146.7 50 143.4 50 140 50C 140 56.6 140 63.2 140 70C 136.7 70 133.4 70 130 70C 130 73.3 130 76.6 130 80C 126.7 80 123.4 80 120 80C 120 83.3 120 86.6 120 90C 110.1 90 100.2 90 90 90C 90 93.3 90 96.6 90 100C 86.7 100 83.4 100 80 100C 80 103.3 80 106.6 80 110C 73.4 110 66.8 110 60 110C 60 116.6 60 123.2 60 130C 56.7 130 53.4 130 50 130C 50 133.3 50 136.6 50 140C 43.4 140 36.8 140 30 140C 30 136.7 30 133.4 30 130C 26.7 130 23.4 130 20 130C 20 123.4 20 116.8 20 110C 13.4 110 6.8 110 0 110C 0 106.7 0 103.4 0 100C -3.3 100 -6.6 100 -10 100C -10 96.7 -10 93.4 -10 90C -16.6 90 -23.2 90 -30 90C -30 86.7 -30 83.4 -30 80C -36.6 80 -43.2 80 -50 80C -50 76.7 -50 73.4 -50 70C -53.3 70 -56.6 70 -60 70C -60 63.4 -60 56.8 -60 50C -63.3 50 -66.6 50 -70 50C -70 43.4 -70 36.8 -70 30C -66.7 30 -63.4 30 -60 30C -60 33.3 -60 36.6 -60 40C -56.7 40 -53.4 40 -50 40C -50 43.3 -50 46.6 -50 50C -46.7 50 -43.4 50 -40 50C -40 53.3 -40 56.6 -40 60C -33.4 60 -26.8 60 -20 60C -20 46.8 -20 33.6 -20 20C -16.7 20 -13.4 20 -10 20C -10 16.7 -10 13.4 -10 10C -6.7 10 -3.4 10 0 10C 0 6.7 0 3.4 0 0z" stroke="none" fill="#FECCB5" fill-rule="nonzero"/>
			<path transform="matrix(1 0 0 1 130 350)" d="M0 0C 6.6 0 13.2 0 20 0C 20 3.3 20 6.6 20 10C 23.3 10 26.6 10 30 10C 30 16.6 30 23.2 30 30C 33.3 30 36.6 30 40 30C 40 26.7 40 23.4 40 20C 43.3 20 46.6 20 50 20C 50 23.3 50 26.6 50 30C 53.3 30 56.6 30 60 30C 60 36.6 60 43.2 60 50C 56.7 50 53.4 50 50 50C 50 56.6 50 63.2 50 70C 53.3 70 56.6 70 60 70C 60 73.3 60 76.6 60 80C 69.9 80 79.8 80 90 80C 90 83.3 90 86.6 90 90C 93.3 90 96.6 90 100 90C 100 86.7 100 83.4 100 80C 103.3 80 106.6 80 110 80C 110 76.7 110 73.4 110 70C 106.7 70 103.4 70 100 70C 100 60.1 100 50.2 100 40C 103.3 40 106.6 40 110 40C 110 36.7 110 33.4 110 30C 113.3 30 116.6 30 120 30C 120 49.8 120 69.6 120 90C 133.2 90 146.4 90 160 90C 160 93.3 160 96.6 160 100C 163.3 100 166.6 100 170 100C 170 106.6 170 113.2 170 120C 166.7 120 163.4 120 160 120C 160 123.3 160 126.6 160 130C 146.8 130 133.6 130 120 130C 120 126.7 120 123.4 120 120C 113.4 120 106.8 120 100 120C 100 123.3 100 126.6 100 130C 86.8 130 73.6 130 60 130C 60 126.7 60 123.4 60 120C 56.7 120 53.4 120 50 120C 50 106.8 50 93.6 50 80C 40.1 80 30.2 80 20 80C 20 83.3 20 86.6 20 90C 16.7 90 13.4 90 10 90C 10 93.3 10 96.6 10 100C 0.1 100 -9.8 100 -20 100C -20 96.7 -20 93.4 -20 90C -23.3 90 -26.6 90 -30 90C -30 80.1 -30 70.2 -30 60C -26.7 60 -23.4 60 -20 60C -20 50.1 -20 40.2 -20 30C -16.7 30 -13.4 30 -10 30C -10 23.4 -10 16.8 -10 10C -6.7 10 -3.4 10 0 10C 0 6.7 0 3.4 0 0z" stroke="none" fill="#F8DBCB" fill-rule="nonzero"/>
			<path transform="matrix(1 0 0 1 150 50)" d="M0 0C 6.6 0 13.2 0 20 0C 20 6.6 20 13.2 20 20C 23.3 20 26.6 20 30 20C 30 26.6 30 33.2 30 40C 23.4 40 16.8 40 10 40C 10 43.3 10 46.6 10 50C 6.7 50 3.4 50 0 50C 0 53.3 0 56.6 0 60C -3.3 60 -6.6 60 -10 60C -10 63.3 -10 66.6 -10 70C -6.7 70 -3.4 70 0 70C 0 73.3 0 76.6 0 80C 3.3 80 6.6 80 10 80C 10 99.8 10 119.6 10 140C 3.4 140 -3.2 140 -10 140C -10 136.7 -10 133.4 -10 130C -16.6 130 -23.2 130 -30 130C -30 133.3 -30 136.6 -30 140C -33.3 140 -36.6 140 -40 140C -40 143.3 -40 146.6 -40 150C -49.9 150 -59.8 150 -70 150C -70 146.7 -70 143.4 -70 140C -76.6 140 -83.2 140 -90 140C -90 136.7 -90 133.4 -90 130C -93.3 130 -96.6 130 -100 130C -100 123.4 -100 116.8 -100 110C -103.3 110 -106.6 110 -110 110C -110 103.4 -110 96.8 -110 90C -106.7 90 -103.4 90 -100 90C -100 86.7 -100 83.4 -100 80C -96.7 80 -93.4 80 -90 80C -90 76.7 -90 73.4 -90 70C -83.4 70 -76.8 70 -70 70C -70 66.7 -70 63.4 -70 60C -63.4 60 -56.8 60 -50 60C -50 56.7 -50 53.4 -50 50C -43.4 50 -36.8 50 -30 50C -30 46.7 -30 43.4 -30 40C -23.4 40 -16.8 40 -10 40C -10 30.1 -10 20.2 -10 10C -6.7 10 -3.4 10 0 10C 0 6.7 0 3.4 0 0z" stroke="none" fill="#3A3E49" fill-rule="nonzero"/>
			<path transform="matrix(1 0 0 1 100 240)" d="M0 0C 6.6 0 13.2 0 20 0C 20 6.6 20 13.2 20 20C 23.3 20 26.6 20 30 20C 30 26.6 30 33.2 30 40C 33.3 40 36.6 40 40 40C 40 43.3 40 46.6 40 50C 46.6 50 53.2 50 60 50C 60 53.3 60 56.6 60 60C 63.3 60 66.6 60 70 60C 70 63.3 70 66.6 70 70C 73.3 70 76.6 70 80 70C 80 73.3 80 76.6 80 80C 83.3 80 86.6 80 90 80C 90 86.6 90 93.2 90 100C 86.7 100 83.4 100 80 100C 80 103.3 80 106.6 80 110C 73.4 110 66.8 110 60 110C 60 106.7 60 103.4 60 100C 46.8 100 33.6 100 20 100C 20 96.7 20 93.4 20 90C 6.8 90 -6.4 90 -20 90C -20 86.7 -20 83.4 -20 80C -23.3 80 -26.6 80 -30 80C -30 73.4 -30 66.8 -30 60C -36.6 60 -43.2 60 -50 60C -50 56.7 -50 53.4 -50 50C -56.6 50 -63.2 50 -70 50C -70 43.4 -70 36.8 -70 30C -60.1 30 -50.2 30 -40 30C -40 26.7 -40 23.4 -40 20C -30.1 20 -20.2 20 -10 20C -10 16.7 -10 13.4 -10 10C -6.7 10 -3.4 10 0 10C 0 6.7 0 3.4 0 0z" stroke="none" fill="#FDFDFD" fill-rule="nonzero"/>
			<path transform="matrix(1 0 0 1 330 350)" d="M0 0C 6.6 0 13.2 0 20 0C 20 3.3 20 6.6 20 10C 23.3 10 26.6 10 30 10C 30 16.6 30 23.2 30 30C 33.3 30 36.6 30 40 30C 40 39.9 40 49.8 40 60C 43.3 60 46.6 60 50 60C 50 69.9 50 79.8 50 90C 46.7 90 43.4 90 40 90C 40 93.3 40 96.6 40 100C 30.1 100 20.2 100 10 100C 10 96.7 10 93.4 10 90C 6.7 90 3.4 90 0 90C 0 86.7 0 83.4 0 80C -9.9 80 -19.8 80 -30 80C -30 86.6 -30 93.2 -30 100C -33.3 100 -36.6 100 -40 100C -40 96.7 -40 93.4 -40 90C -53.2 90 -66.4 90 -80 90C -80 70.2 -80 50.4 -80 30C -83.3 30 -86.6 30 -90 30C -90 33.3 -90 36.6 -90 40C -93.3 40 -96.6 40 -100 40C -100 30.1 -100 20.2 -100 10C -93.4 10 -86.8 10 -80 10C -80 13.3 -80 16.6 -80 20C -76.7 20 -73.4 20 -70 20C -70 23.3 -70 26.6 -70 30C -66.7 30 -63.4 30 -60 30C -60 33.3 -60 36.6 -60 40C -63.3 40 -66.6 40 -70 40C -70 46.6 -70 53.2 -70 60C -66.7 60 -63.4 60 -60 60C -60 63.3 -60 66.6 -60 70C -63.3 70 -66.6 70 -70 70C -70 73.3 -70 76.6 -70 80C -60.1 80 -50.2 80 -40 80C -40 76.7 -40 73.4 -40 70C -36.7 70 -33.4 70 -30 70C -30 66.7 -30 63.4 -30 60C -26.7 60 -23.4 60 -20 60C -20 50.1 -20 40.2 -20 30C -13.4 30 -6.8 30 0 30C 0 26.7 0 23.4 0 20C 3.3 20 6.6 20 10 20C 10 16.7 10 13.4 10 10C 6.7 10 3.4 10 0 10C 0 6.7 0 3.4 0 0z" stroke="none" fill="#F8DBCB" fill-rule="nonzero"/>
			<path transform="matrix(1 0 0 1 240 380)" d="M0 0C 3.3 0 6.6 0 10 0C 10 19.8 10 39.6 10 60C 23.2 60 36.4 60 50 60C 50 63.3 50 66.6 50 70C 53.3 70 56.6 70 60 70C 60 76.6 60 83.2 60 90C 56.7 90 53.4 90 50 90C 50 93.3 50 96.6 50 100C 36.8 100 23.6 100 10 100C 10 96.7 10 93.4 10 90C 3.4 90 -3.2 90 -10 90C -10 93.3 -10 96.6 -10 100C -23.2 100 -36.4 100 -50 100C -50 96.7 -50 93.4 -50 90C -53.3 90 -56.6 90 -60 90C -60 83.4 -60 76.8 -60 70C -56.7 70 -53.4 70 -50 70C -50 66.7 -50 63.4 -50 60C -36.8 60 -23.6 60 -10 60C -10 56.7 -10 53.4 -10 50C -6.7 50 -3.4 50 0 50C 0 46.7 0 43.4 0 40C -3.3 40 -6.6 40 -10 40C -10 30.1 -10 20.2 -10 10C -6.7 10 -3.4 10 0 10C 0 6.7 0 3.4 0 0z" stroke="none" fill="#242033" fill-rule="nonzero"/>
			<path transform="matrix(1 0 0 1 360 240)" d="M0 0C 6.6 0 13.2 0 20 0C 20 3.3 20 6.6 20 10C 23.3 10 26.6 10 30 10C 30 13.3 30 16.6 30 20C 39.9 20 49.8 20 60 20C 60 23.3 60 26.6 60 30C 69.9 30 79.8 30 90 30C 90 36.6 90 43.2 90 50C 83.4 50 76.8 50 70 50C 70 53.3 70 56.6 70 60C 63.4 60 56.8 60 50 60C 50 66.6 50 73.2 50 80C 46.7 80 43.4 80 40 80C 40 83.3 40 86.6 40 90C 36.7 90 33.4 90 30 90C 30 86.7 30 83.4 30 80C 26.7 80 23.4 80 20 80C 20 76.7 20 73.4 20 70C 10.1 70 0.2 70 -10 70C -10 66.7 -10 63.4 -10 60C -6.7 60 -3.4 60 0 60C 0 56.7 0 53.4 0 50C 6.6 50 13.2 50 20 50C 20 46.7 20 43.4 20 40C 16.7 40 13.4 40 10 40C 10 36.7 10 33.4 10 30C 3.4 30 -3.2 30 -10 30C -10 26.7 -10 23.4 -10 20C -6.7 20 -3.4 20 0 20C 0 13.4 0 6.8 0 0z" stroke="none" fill="#FDFDFD" fill-rule="nonzero"/>
			<path transform="matrix(1 0 0 1 180 0)" d="M0 0C 39.6 0 79.2 0 120 0C 120 3.3 120 6.6 120 10C 123.3 10 126.6 10 130 10C 130 16.6 130 23.2 130 30C 126.7 30 123.4 30 120 30C 120 33.3 120 36.6 120 40C 80.4 40 40.8 40 0 40C 0 36.7 0 33.4 0 30C -3.3 30 -6.6 30 -10 30C -10 23.4 -10 16.8 -10 10C -6.7 10 -3.4 10 0 10C 0 6.7 0 3.4 0 0zM10 10C 10 16.6 10 23.2 10 30C 43 30 76 30 110 30C 110 23.4 110 16.8 110 10C 77 10 44 10 10 10z" stroke="none" fill="#AC813B" fill-rule="nonzero"/>
			<path transform="matrix(1 0 0 1 150 290)" d="M0 0C 3.3 0 6.6 0 10 0C 10 3.3 10 6.6 10 10C 13.3 10 16.6 10 20 10C 20 13.3 20 16.6 20 20C 23.3 20 26.6 20 30 20C 30 23.3 30 26.6 30 30C 33.3 30 36.6 30 40 30C 40 36.6 40 43.2 40 50C 36.7 50 33.4 50 30 50C 30 53.3 30 56.6 30 60C 23.4 60 16.8 60 10 60C 10 56.7 10 53.4 10 50C -3.2 50 -16.4 50 -30 50C -30 46.7 -30 43.4 -30 40C -39.9 40 -49.8 40 -60 40C -60 36.7 -60 33.4 -60 30C -56.7 30 -53.4 30 -50 30C -50 26.7 -50 23.4 -50 20C -36.8 20 -23.6 20 -10 20C -10 16.7 -10 13.4 -10 10C -6.7 10 -3.4 10 0 10C 0 6.7 0 3.4 0 0z" stroke="none" fill="#DEB5AA" fill-rule="nonzero"/>
			<path transform="matrix(1 0 0 1 350 140)" d="M0 0C 9.9 0 19.8 0 30 0C 30 3.3 30 6.6 30 10C 36.6 10 43.2 10 50 10C 50 13.3 50 16.6 50 20C 56.6 20 63.2 20 70 20C 70 29.9 70 39.8 70 50C 63.4 50 56.8 50 50 50C 50 53.3 50 56.6 50 60C 40.1 60 30.2 60 20 60C 20 56.7 20 53.4 20 50C 16.7 50 13.4 50 10 50C 10 46.7 10 43.4 10 40C 6.7 40 3.4 40 0 40C 0 26.8 0 13.6 0 0z" stroke="none" fill="#FCCCB6" fill-rule="nonzero"/>
			<path transform="matrix(1 0 0 1 100 140)" d="M0 0C 9.9 0 19.8 0 30 0C 30 13.2 30 26.4 30 40C 26.7 40 23.4 40 20 40C 20 43.3 20 46.6 20 50C 16.7 50 13.4 50 10 50C 10 53.3 10 56.6 10 60C 0.1 60 -9.8 60 -20 60C -20 56.7 -20 53.4 -20 50C -26.6 50 -33.2 50 -40 50C -40 40.1 -40 30.2 -40 20C -33.4 20 -26.8 20 -20 20C -20 16.7 -20 13.4 -20 10C -13.4 10 -6.8 10 0 10C 0 6.7 0 3.4 0 0z" stroke="none" fill="#FCCCB6" fill-rule="nonzero"/>
			<path transform="matrix(1 0 0 1 190 280)" d="M0 0C 33 0 66 0 100 0C 100 3.3 100 6.6 100 10C 96.7 10 93.4 10 90 10C 90 13.3 90 16.6 90 20C 83.4 20 76.8 20 70 20C 70 26.6 70 33.2 70 40C 66.7 40 63.4 40 60 40C 60 43.3 60 46.6 60 50C 53.4 50 46.8 50 40 50C 40 46.7 40 43.4 40 40C 36.7 40 33.4 40 30 40C 30 33.4 30 26.8 30 20C 23.4 20 16.8 20 10 20C 10 16.7 10 13.4 10 10C 6.7 10 3.4 10 0 10C 0 6.7 0 3.4 0 0z" stroke="none" fill="#3A3E49" fill-rule="nonzero"/>
			<path transform="matrix(1 0 0 1 100 240)" d="M0 0C 6.6 0 13.2 0 20 0C 20 6.6 20 13.2 20 20C 23.3 20 26.6 20 30 20C 30 23.3 30 26.6 30 30C 23.4 30 16.8 30 10 30C 10 33.3 10 36.6 10 40C 0.1 40 -9.8 40 -20 40C -20 43.3 -20 46.6 -20 50C -23.3 50 -26.6 50 -30 50C -30 53.3 -30 56.6 -30 60C -36.6 60 -43.2 60 -50 60C -50 56.7 -50 53.4 -50 50C -56.6 50 -63.2 50 -70 50C -70 43.4 -70 36.8 -70 30C -60.1 30 -50.2 30 -40 30C -40 26.7 -40 23.4 -40 20C -30.1 20 -20.2 20 -10 20C -10 16.7 -10 13.4 -10 10C -6.7 10 -3.4 10 0 10C 0 6.7 0 3.4 0 0z" stroke="none" fill="#FDFDFD" fill-rule="nonzero"/>
			<path transform="matrix(1 0 0 1 60 120)" d="M0 0C 9.9 0 19.8 0 30 0C 30 3.3 30 6.6 30 10C 36.6 10 43.2 10 50 10C 50 6.7 50 3.4 50 0C 56.6 0 63.2 0 70 0C 70 6.6 70 13.2 70 20C 60.1 20 50.2 20 40 20C 40 23.3 40 26.6 40 30C 33.4 30 26.8 30 20 30C 20 33.3 20 36.6 20 40C 13.4 40 6.8 40 0 40C 0 46.6 0 53.2 0 60C -3.3 60 -6.6 60 -10 60C -10 53.4 -10 46.8 -10 40C -13.3 40 -16.6 40 -20 40C -20 33.4 -20 26.8 -20 20C -16.7 20 -13.4 20 -10 20C -10 16.7 -10 13.4 -10 10C -6.7 10 -3.4 10 0 10C 0 6.7 0 3.4 0 0z" stroke="none" fill="#3A3E49" fill-rule="nonzero"/>
			<path transform="matrix(1 0 0 1 350 400)" d="M0 0C 6.6 0 13.2 0 20 0C 20 3.3 20 6.6 20 10C 23.3 10 26.6 10 30 10C 30 19.9 30 29.8 30 40C 26.7 40 23.4 40 20 40C 20 43.3 20 46.6 20 50C 10.1 50 0.2 50 -10 50C -10 46.7 -10 43.4 -10 40C -13.3 40 -16.6 40 -20 40C -20 33.4 -20 26.8 -20 20C -16.7 20 -13.4 20 -10 20C -10 16.7 -10 13.4 -10 10C -6.7 10 -3.4 10 0 10C 0 6.7 0 3.4 0 0z" stroke="none" fill="#242033" fill-rule="nonzero"/>
			<path transform="matrix(1 0 0 1 190 260)" d="M0 0C 3.3 0 6.6 0 10 0C 10 3.3 10 6.6 10 10C 36.4 10 62.8 10 90 10C 90 6.7 90 3.4 90 0C 93.3 0 96.6 0 100 0C 100 3.3 100 6.6 100 10C 106.6 10 113.2 10 120 10C 120 6.7 120 3.4 120 0C 126.6 0 133.2 0 140 0C 140 3.3 140 6.6 140 10C 136.7 10 133.4 10 130 10C 130 13.3 130 16.6 130 20C 80.5 20 31 20 -20 20C -20 16.7 -20 13.4 -20 10C -13.4 10 -6.8 10 0 10C 0 6.7 0 3.4 0 0z" stroke="none" fill="#D87B8A" fill-rule="nonzero"/>
			<path transform="matrix(1 0 0 1 120 400)" d="M0 0C 3.3 0 6.6 0 10 0C 10 3.3 10 6.6 10 10C 13.3 10 16.6 10 20 10C 20 13.3 20 16.6 20 20C 23.3 20 26.6 20 30 20C 30 26.6 30 33.2 30 40C 26.7 40 23.4 40 20 40C 20 43.3 20 46.6 20 50C 10.1 50 0.2 50 -10 50C -10 46.7 -10 43.4 -10 40C -13.3 40 -16.6 40 -20 40C -20 30.1 -20 20.2 -20 10C -13.4 10 -6.8 10 0 10C 0 6.7 0 3.4 0 0z" stroke="none" fill="#3A3E49" fill-rule="nonzero"/>
			<path transform="matrix(1 0 0 1 300 300)" d="M0 0C 3.3 0 6.6 0 10 0C 10 3.3 10 6.6 10 10C 13.3 10 16.6 10 20 10C 20 23.2 20 36.4 20 50C 10.1 50 0.2 50 -10 50C -10 46.7 -10 43.4 -10 40C -13.3 40 -16.6 40 -20 40C -20 33.4 -20 26.8 -20 20C -16.7 20 -13.4 20 -10 20C -10 16.7 -10 13.4 -10 10C -6.7 10 -3.4 10 0 10C 0 6.7 0 3.4 0 0z" stroke="none" fill="#3A3E49" fill-rule="nonzero"/>
			<path transform="matrix(1 0 0 1 340 200)" d="M0 0C 3.3 0 6.6 0 10 0C 10 6.6 10 13.2 10 20C 6.7 20 3.4 20 0 20C 0 23.3 0 26.6 0 30C -3.3 30 -6.6 30 -10 30C -10 33.3 -10 36.6 -10 40C -13.3 40 -16.6 40 -20 40C -20 43.3 -20 46.6 -20 50C -26.6 50 -33.2 50 -40 50C -40 36.8 -40 23.6 -40 10C -26.8 10 -13.6 10 0 10C 0 6.7 0 3.4 0 0z" stroke="none" fill="#FDFDFD" fill-rule="nonzero"/>
			<path transform="matrix(1 0 0 1 150 50)" d="M0 0C 6.6 0 13.2 0 20 0C 20 6.6 20 13.2 20 20C 23.3 20 26.6 20 30 20C 30 26.6 30 33.2 30 40C 23.4 40 16.8 40 10 40C 10 43.3 10 46.6 10 50C 6.7 50 3.4 50 0 50C 0 46.7 0 43.4 0 40C -3.3 40 -6.6 40 -10 40C -10 30.1 -10 20.2 -10 10C -6.7 10 -3.4 10 0 10C 0 6.7 0 3.4 0 0z" stroke="none" fill="#3A3E49" fill-rule="nonzero"/>
			<path transform="matrix(1 0 0 1 180 0)" d="M0 0C 39.6 0 79.2 0 120 0C 120 3.3 120 6.6 120 10C 83.7 10 47.4 10 10 10C 10 13.3 10 16.6 10 20C 3.4 20 -3.2 20 -10 20C -10 16.7 -10 13.4 -10 10C -6.7 10 -3.4 10 0 10C 0 6.7 0 3.4 0 0z" stroke="none" fill="#FCD54A" fill-rule="nonzero"/>
			<path transform="matrix(1 0 0 1 360 290)" d="M0 0C 9.9 0 19.8 0 30 0C 30 3.3 30 6.6 30 10C 36.6 10 43.2 10 50 10C 50 16.6 50 23.2 50 30C 46.7 30 43.4 30 40 30C 40 33.3 40 36.6 40 40C 36.7 40 33.4 40 30 40C 30 36.7 30 33.4 30 30C 26.7 30 23.4 30 20 30C 20 26.7 20 23.4 20 20C 10.1 20 0.2 20 -10 20C -10 16.7 -10 13.4 -10 10C -6.7 10 -3.4 10 0 10C 0 6.7 0 3.4 0 0z" stroke="none" fill="#FDFDFD" fill-rule="nonzero"/>
			<path transform="matrix(1 0 0 1 130 220)" d="M0 0C 3.3 0 6.6 0 10 0C 10 3.3 10 6.6 10 10C 13.3 10 16.6 10 20 10C 20 13.3 20 16.6 20 20C 23.3 20 26.6 20 30 20C 30 23.3 30 26.6 30 30C 36.6 30 43.2 30 50 30C 50 33.3 50 36.6 50 40C 53.3 40 56.6 40 60 40C 60 43.3 60 46.6 60 50C 46.8 50 33.6 50 20 50C 20 46.7 20 43.4 20 40C 16.7 40 13.4 40 10 40C 10 33.4 10 26.8 10 20C 6.7 20 3.4 20 0 20C 0 13.4 0 6.8 0 0z" stroke="none" fill="#F8DBCB" fill-rule="nonzero"/>
			<path transform="matrix(1 0 0 1 240 380)" d="M0 0C 3.3 0 6.6 0 10 0C 10 23.1 10 46.2 10 70C 3.4 70 -3.2 70 -10 70C -10 63.4 -10 56.8 -10 50C -6.7 50 -3.4 50 0 50C 0 46.7 0 43.4 0 40C -3.3 40 -6.6 40 -10 40C -10 30.1 -10 20.2 -10 10C -6.7 10 -3.4 10 0 10C 0 6.7 0 3.4 0 0z" stroke="none" fill="#CE9D94" fill-rule="nonzero"/>
			<path transform="matrix(1 0 0 1 190 440)" d="M0 0C 6.6 0 13.2 0 20 0C 20 3.3 20 6.6 20 10C 16.7 10 13.4 10 10 10C 10 13.3 10 16.6 10 20C 13.3 20 16.6 20 20 20C 20 23.3 20 26.6 20 30C 26.6 30 33.2 30 40 30C 40 33.3 40 36.6 40 40C 26.8 40 13.6 40 0 40C 0 36.7 0 33.4 0 30C -3.3 30 -6.6 30 -10 30C -10 23.4 -10 16.8 -10 10C -6.7 10 -3.4 10 0 10C 0 6.7 0 3.4 0 0z" stroke="none" fill="#242033" fill-rule="nonzero"/>
			<path transform="matrix(1 0 0 1 240 290)" d="M0 0C 3.3 0 6.6 0 10 0C 10 3.3 10 6.6 10 10C 13.3 10 16.6 10 20 10C 20 16.6 20 23.2 20 30C 16.7 30 13.4 30 10 30C 10 33.3 10 36.6 10 40C 3.4 40 -3.2 40 -10 40C -10 36.7 -10 33.4 -10 30C -13.3 30 -16.6 30 -20 30C -20 23.4 -20 16.8 -20 10C -13.4 10 -6.8 10 0 10C 0 6.7 0 3.4 0 0z" stroke="none" fill="#E1AB30" fill-rule="nonzero"/>
			<path transform="matrix(1 0 0 1 340 220)" d="M0 0C 3.3 0 6.6 0 10 0C 10 6.6 10 13.2 10 20C 6.7 20 3.4 20 0 20C 0 26.6 0 33.2 0 40C -9.9 40 -19.8 40 -30 40C -30 43.3 -30 46.6 -30 50C -36.6 50 -43.2 50 -50 50C -50 46.7 -50 43.4 -50 40C -46.7 40 -43.4 40 -40 40C -40 36.7 -40 33.4 -40 30C -33.4 30 -26.8 30 -20 30C -20 26.7 -20 23.4 -20 20C -16.7 20 -13.4 20 -10 20C -10 16.7 -10 13.4 -10 10C -6.7 10 -3.4 10 0 10C 0 6.7 0 3.4 0 0z" stroke="none" fill="#F8DBCB" fill-rule="nonzero"/>
			<path transform="matrix(1 0 0 1 330 90)" d="M0 0C 9.9 0 19.8 0 30 0C 30 3.3 30 6.6 30 10C 36.6 10 43.2 10 50 10C 50 13.3 50 16.6 50 20C 56.6 20 63.2 20 70 20C 70 23.3 70 26.6 70 30C 60.1 30 50.2 30 40 30C 40 26.7 40 23.4 40 20C 36.7 20 33.4 20 30 20C 30 23.3 30 26.6 30 30C 26.7 30 23.4 30 20 30C 20 26.7 20 23.4 20 20C 16.7 20 13.4 20 10 20C 10 16.7 10 13.4 10 10C 6.7 10 3.4 10 0 10C 0 6.7 0 3.4 0 0z" stroke="none" fill="#59636E" fill-rule="nonzero"/>
			<path transform="matrix(1 0 0 1 210 440)" d="M0 0C 6.6 0 13.2 0 20 0C 20 3.3 20 6.6 20 10C 23.3 10 26.6 10 30 10C 30 13.3 30 16.6 30 20C 33.3 20 36.6 20 40 20C 40 23.3 40 26.6 40 30C 26.8 30 13.6 30 0 30C 0 26.7 0 23.4 0 20C -3.3 20 -6.6 20 -10 20C -10 16.7 -10 13.4 -10 10C -6.7 10 -3.4 10 0 10C 0 6.7 0 3.4 0 0z" stroke="none" fill="#242033" fill-rule="nonzero"/>
			<path transform="matrix(1 0 0 1 130 350)" d="M0 0C 6.6 0 13.2 0 20 0C 20 3.3 20 6.6 20 10C 23.3 10 26.6 10 30 10C 30 19.9 30 29.8 30 40C 23.4 40 16.8 40 10 40C 10 36.7 10 33.4 10 30C 6.7 30 3.4 30 0 30C 0 20.1 0 10.2 0 0z" stroke="none" fill="#3A3E49" fill-rule="nonzero"/>
			<path transform="matrix(1 0 0 1 160 310)" d="M0 0C 6.6 0 13.2 0 20 0C 20 3.3 20 6.6 20 10C 23.3 10 26.6 10 30 10C 30 16.6 30 23.2 30 30C 26.7 30 23.4 30 20 30C 20 33.3 20 36.6 20 40C 13.4 40 6.8 40 0 40C 0 26.8 0 13.6 0 0z" stroke="none" fill="#3A3E49" fill-rule="nonzero"/>
			<path transform="matrix(1 0 0 1 390 130)" d="M0 0C 3.3 0 6.6 0 10 0C 10 3.3 10 6.6 10 10C 13.3 10 16.6 10 20 10C 20 13.3 20 16.6 20 20C 29.9 20 39.8 20 50 20C 50 23.3 50 26.6 50 30C 46.7 30 43.4 30 40 30C 40 36.6 40 43.2 40 50C 36.7 50 33.4 50 30 50C 30 43.4 30 36.8 30 30C 23.4 30 16.8 30 10 30C 10 26.7 10 23.4 10 20C 3.4 20 -3.2 20 -10 20C -10 16.7 -10 13.4 -10 10C -6.7 10 -3.4 10 0 10C 0 6.7 0 3.4 0 0z" stroke="none" fill="#242033" fill-rule="nonzero"/>
			<path transform="matrix(1 0 0 1 350 400)" d="M0 0C 6.6 0 13.2 0 20 0C 20 3.3 20 6.6 20 10C 16.7 10 13.4 10 10 10C 10 16.6 10 23.2 10 30C 6.7 30 3.4 30 0 30C 0 33.3 0 36.6 0 40C -6.6 40 -13.2 40 -20 40C -20 33.4 -20 26.8 -20 20C -16.7 20 -13.4 20 -10 20C -10 16.7 -10 13.4 -10 10C -6.7 10 -3.4 10 0 10C 0 6.7 0 3.4 0 0z" stroke="none" fill="#3A3E49" fill-rule="nonzero"/>
			<path transform="matrix(1 0 0 1 100 410)" d="M0 0C 3.3 0 6.6 0 10 0C 10 3.3 10 6.6 10 10C 13.3 10 16.6 10 20 10C 20 13.3 20 16.6 20 20C 23.3 20 26.6 20 30 20C 30 23.3 30 26.6 30 30C 33.3 30 36.6 30 40 30C 40 33.3 40 36.6 40 40C 30.1 40 20.2 40 10 40C 10 36.7 10 33.4 10 30C 6.7 30 3.4 30 0 30C 0 20.1 0 10.2 0 0z" stroke="none" fill="#242033" fill-rule="nonzero"/>
			<path transform="matrix(1 0 0 1 350 140)" d="M0 0C 9.9 0 19.8 0 30 0C 30 3.3 30 6.6 30 10C 36.6 10 43.2 10 50 10C 50 16.6 50 23.2 50 30C 46.7 30 43.4 30 40 30C 40 26.7 40 23.4 40 20C 36.7 20 33.4 20 30 20C 30 23.3 30 26.6 30 30C 26.7 30 23.4 30 20 30C 20 26.7 20 23.4 20 20C 16.7 20 13.4 20 10 20C 10 16.7 10 13.4 10 10C 6.7 10 3.4 10 0 10C 0 6.7 0 3.4 0 0z" stroke="none" fill="#D77C8A" fill-rule="nonzero"/>
			<path transform="matrix(1 0 0 1 340 310)" d="M0 0C 13.2 0 26.4 0 40 0C 40 3.3 40 6.6 40 10C 43.3 10 46.6 10 50 10C 50 13.3 50 16.6 50 20C 36.8 20 23.6 20 10 20C 10 16.7 10 13.4 10 10C 6.7 10 3.4 10 0 10C 0 6.7 0 3.4 0 0z" stroke="none" fill="#F8DBCB" fill-rule="nonzero"/>
			<path transform="matrix(1 0 0 1 280 290)" d="M0 0C 6.6 0 13.2 0 20 0C 20 6.6 20 13.2 20 20C 16.7 20 13.4 20 10 20C 10 23.3 10 26.6 10 30C 3.4 30 -3.2 30 -10 30C -10 26.7 -10 23.4 -10 20C -13.3 20 -16.6 20 -20 20C -20 16.7 -20 13.4 -20 10C -13.4 10 -6.8 10 0 10C 0 6.7 0 3.4 0 0z" stroke="none" fill="#F8DBCB" fill-rule="nonzero"/>
			<path transform="matrix(1 0 0 1 290 10)" d="M0 0C 6.6 0 13.2 0 20 0C 20 6.6 20 13.2 20 20C 16.7 20 13.4 20 10 20C 10 23.3 10 26.6 10 30C -3.2 30 -16.4 30 -30 30C -30 26.7 -30 23.4 -30 20C -20.1 20 -10.2 20 0 20C 0 13.4 0 6.8 0 0z" stroke="none" fill="#E1AB30" fill-rule="nonzero"/>
			<path transform="matrix(1 0 0 1 260 440)" d="M0 0C 9.9 0 19.8 0 30 0C 30 6.6 30 13.2 30 20C 26.7 20 23.4 20 20 20C 20 23.3 20 26.6 20 30C 16.7 30 13.4 30 10 30C 10 26.7 10 23.4 10 20C 6.7 20 3.4 20 0 20C 0 13.4 0 6.8 0 0z" stroke="none" fill="#3A3E49" fill-rule="nonzero"/>
			<path transform="matrix(1 0 0 1 250 280)" d="M0 0C 13.2 0 26.4 0 40 0C 40 3.3 40 6.6 40 10C 36.7 10 33.4 10 30 10C 30 13.3 30 16.6 30 20C 20.1 20 10.2 20 0 20C 0 13.4 0 6.8 0 0z" stroke="none" fill="#242033" fill-rule="nonzero"/>
			<path transform="matrix(1 0 0 1 350 270)" d="M0 0C 6.6 0 13.2 0 20 0C 20 3.3 20 6.6 20 10C 23.3 10 26.6 10 30 10C 30 13.3 30 16.6 30 20C 23.4 20 16.8 20 10 20C 10 23.3 10 26.6 10 30C 6.7 30 3.4 30 0 30C 0 26.7 0 23.4 0 20C -3.3 20 -6.6 20 -10 20C -10 16.7 -10 13.4 -10 10C -6.7 10 -3.4 10 0 10C 0 6.7 0 3.4 0 0z" stroke="none" fill="#F8DBCB" fill-rule="nonzero"/>
			<path transform="matrix(1 0 0 1 110 270)" d="M0 0C 6.6 0 13.2 0 20 0C 20 3.3 20 6.6 20 10C 23.3 10 26.6 10 30 10C 30 13.3 30 16.6 30 20C 26.7 20 23.4 20 20 20C 20 23.3 20 26.6 20 30C 16.7 30 13.4 30 10 30C 10 26.7 10 23.4 10 20C 3.4 20 -3.2 20 -10 20C -10 16.7 -10 13.4 -10 10C -6.7 10 -3.4 10 0 10C 0 6.7 0 3.4 0 0z" stroke="none" fill="#F8DBCB" fill-rule="nonzero"/>
			<path transform="matrix(1 0 0 1 280 260)" d="M0 0C 3.3 0 6.6 0 10 0C 10 3.3 10 6.6 10 10C 16.6 10 23.2 10 30 10C 30 6.7 30 3.4 30 0C 36.6 0 43.2 0 50 0C 50 3.3 50 6.6 50 10C 46.7 10 43.4 10 40 10C 40 13.3 40 16.6 40 20C 26.8 20 13.6 20 0 20C 0 13.4 0 6.8 0 0z" stroke="none" fill="#CE9D94" fill-rule="nonzero"/>
			<path transform="matrix(1 0 0 1 260 210)" d="M0 0C 6.6 0 13.2 0 20 0C 20 3.3 20 6.6 20 10C 23.3 10 26.6 10 30 10C 30 16.6 30 23.2 30 30C 23.4 30 16.8 30 10 30C 10 26.7 10 23.4 10 20C 6.7 20 3.4 20 0 20C 0 13.4 0 6.8 0 0z" stroke="none" fill="#592437" fill-rule="nonzero"/>
			<path transform="matrix(1 0 0 1 200 210)" d="M0 0C 6.6 0 13.2 0 20 0C 20 6.6 20 13.2 20 20C 16.7 20 13.4 20 10 20C 10 23.3 10 26.6 10 30C 3.4 30 -3.2 30 -10 30C -10 23.4 -10 16.8 -10 10C -6.7 10 -3.4 10 0 10C 0 6.7 0 3.4 0 0z" stroke="none" fill="#592437" fill-rule="nonzero"/>
			<path transform="matrix(1 0 0 1 60 140)" d="M0 0C 3.3 0 6.6 0 10 0C 10 3.3 10 6.6 10 10C 13.3 10 16.6 10 20 10C 20 13.3 20 16.6 20 20C 13.4 20 6.8 20 0 20C 0 26.6 0 33.2 0 40C -3.3 40 -6.6 40 -10 40C -10 33.4 -10 26.8 -10 20C -13.3 20 -16.6 20 -20 20C -20 16.7 -20 13.4 -20 10C -13.4 10 -6.8 10 0 10C 0 6.7 0 3.4 0 0z" stroke="none" fill="#242033" fill-rule="nonzero"/>
			<path transform="matrix(1 0 0 1 170 370)" d="M0 0C 3.3 0 6.6 0 10 0C 10 3.3 10 6.6 10 10C 13.3 10 16.6 10 20 10C 20 16.6 20 23.2 20 30C 16.7 30 13.4 30 10 30C 10 33.3 10 36.6 10 40C 6.7 40 3.4 40 0 40C 0 26.8 0 13.6 0 0z" stroke="none" fill="#3A3E49" fill-rule="nonzero"/>
			<path transform="matrix(1 0 0 1 230 360)" d="M0 0C 6.6 0 13.2 0 20 0C 20 3.3 20 6.6 20 10C 23.3 10 26.6 10 30 10C 30 13.3 30 16.6 30 20C 23.4 20 16.8 20 10 20C 10 23.3 10 26.6 10 30C 6.7 30 3.4 30 0 30C 0 20.1 0 10.2 0 0z" stroke="none" fill="#F8DBCB" fill-rule="nonzero"/>
			<path transform="matrix(1 0 0 1 180 290)" d="M0 0C 6.6 0 13.2 0 20 0C 20 3.3 20 6.6 20 10C 26.6 10 33.2 10 40 10C 40 13.3 40 16.6 40 20C 36.7 20 33.4 20 30 20C 30 23.3 30 26.6 30 30C 26.7 30 23.4 30 20 30C 20 26.7 20 23.4 20 20C 16.7 20 13.4 20 10 20C 10 16.7 10 13.4 10 10C 6.7 10 3.4 10 0 10C 0 6.7 0 3.4 0 0z" stroke="none" fill="#F8DBCB" fill-rule="nonzero"/>
			<path transform="matrix(1 0 0 1 100 310)" d="M0 0C 6.6 0 13.2 0 20 0C 20 6.6 20 13.2 20 20C 10.1 20 0.2 20 -10 20C -10 16.7 -10 13.4 -10 10C -6.7 10 -3.4 10 0 10C 0 6.7 0 3.4 0 0z" stroke="none" fill="#F8DBCB" fill-rule="nonzero"/>
			<path transform="matrix(1 0 0 1 60 160)" d="M0 0C 6.6 0 13.2 0 20 0C 20 3.3 20 6.6 20 10C 16.7 10 13.4 10 10 10C 10 13.3 10 16.6 10 20C 13.3 20 16.6 20 20 20C 20 23.3 20 26.6 20 30C 13.4 30 6.8 30 0 30C 0 20.1 0 10.2 0 0z" stroke="none" fill="#D77C8A" fill-rule="nonzero"/>
			<path transform="matrix(1 0 0 1 290 150)" d="M0 0C 3.3 0 6.6 0 10 0C 10 3.3 10 6.6 10 10C 13.3 10 16.6 10 20 10C 20 16.6 20 23.2 20 30C 13.4 30 6.8 30 0 30C 0 20.1 0 10.2 0 0z" stroke="none" fill="#121212" fill-rule="nonzero"/>
			<path transform="matrix(1 0 0 1 170 150)" d="M0 0C 3.3 0 6.6 0 10 0C 10 3.3 10 6.6 10 10C 13.3 10 16.6 10 20 10C 20 16.6 20 23.2 20 30C 13.4 30 6.8 30 0 30C 0 20.1 0 10.2 0 0z" stroke="none" fill="#121212" fill-rule="nonzero"/>
			<path transform="matrix(1 0 0 1 110 120)" d="M0 0C 6.6 0 13.2 0 20 0C 20 6.6 20 13.2 20 20C 10.1 20 0.2 20 -10 20C -10 16.7 -10 13.4 -10 10C -6.7 10 -3.4 10 0 10C 0 6.7 0 3.4 0 0z" stroke="none" fill="#242033" fill-rule="nonzero"/>
			<path transform="matrix(1 0 0 1 360 100)" d="M0 0C 6.6 0 13.2 0 20 0C 20 3.3 20 6.6 20 10C 26.6 10 33.2 10 40 10C 40 13.3 40 16.6 40 20C 30.1 20 20.2 20 10 20C 10 16.7 10 13.4 10 10C 6.7 10 3.4 10 0 10C 0 6.7 0 3.4 0 0z" stroke="none" fill="#59636E" fill-rule="nonzero"/>
			<path transform="matrix(1 0 0 1 120 90)" d="M0 0C 9.9 0 19.8 0 30 0C 30 6.6 30 13.2 30 20C 23.4 20 16.8 20 10 20C 10 16.7 10 13.4 10 10C 6.7 10 3.4 10 0 10C 0 6.7 0 3.4 0 0z" stroke="none" fill="#3A3E49" fill-rule="nonzero"/>
			<path transform="matrix(1 0 0 1 330 60)" d="M0 0C 3.3 0 6.6 0 10 0C 10 9.9 10 19.8 10 30C 6.7 30 3.4 30 0 30C 0 33.3 0 36.6 0 40C -3.3 40 -6.6 40 -10 40C -10 33.4 -10 26.8 -10 20C -6.7 20 -3.4 20 0 20C 0 13.4 0 6.8 0 0z" stroke="none" fill="#242033" fill-rule="nonzero"/>
			<path transform="matrix(1 0 0 1 140 60)" d="M0 0C 3.3 0 6.6 0 10 0C 10 6.6 10 13.2 10 20C 13.3 20 16.6 20 20 20C 20 26.6 20 33.2 20 40C 16.7 40 13.4 40 10 40C 10 36.7 10 33.4 10 30C 6.7 30 3.4 30 0 30C 0 20.1 0 10.2 0 0z" stroke="none" fill="#242033" fill-rule="nonzero"/>
			<path transform="matrix(1 0 0 1 170 20)" d="M0 0C 6.6 0 13.2 0 20 0C 20 3.3 20 6.6 20 10C 26.6 10 33.2 10 40 10C 40 13.3 40 16.6 40 20C 30.1 20 20.2 20 10 20C 10 16.7 10 13.4 10 10C 6.7 10 3.4 10 0 10C 0 6.7 0 3.4 0 0z" stroke="none" fill="#E1AB30" fill-rule="nonzero"/>
			<path transform="matrix(1 0 0 1 210 440)" d="M0 0C 3.3 0 6.6 0 10 0C 10 9.9 10 19.8 10 30C 6.7 30 3.4 30 0 30C 0 26.7 0 23.4 0 20C -3.3 20 -6.6 20 -10 20C -10 16.7 -10 13.4 -10 10C -6.7 10 -3.4 10 0 10C 0 6.7 0 3.4 0 0z" stroke="none" fill="#59636E" fill-rule="nonzero"/>
			<path transform="matrix(1 0 0 1 190 440)" d="M0 0C 6.6 0 13.2 0 20 0C 20 3.3 20 6.6 20 10C 16.7 10 13.4 10 10 10C 10 13.3 10 16.6 10 20C 3.4 20 -3.2 20 -10 20C -10 16.7 -10 13.4 -10 10C -6.7 10 -3.4 10 0 10C 0 6.7 0 3.4 0 0z" stroke="none" fill="#3A3E49" fill-rule="nonzero"/>
			<path transform="matrix(1 0 0 1 230 430)" d="M0 0C 6.6 0 13.2 0 20 0C 20 6.6 20 13.2 20 20C 13.4 20 6.8 20 0 20C 0 13.4 0 6.8 0 0z" stroke="none" fill="#CE9D94" fill-rule="nonzero"/>
			<path transform="matrix(1 0 0 1 120 400)" d="M0 0C 3.3 0 6.6 0 10 0C 10 9.9 10 19.8 10 30C 6.7 30 3.4 30 0 30C 0 26.7 0 23.4 0 20C -3.3 20 -6.6 20 -10 20C -10 16.7 -10 13.4 -10 10C -6.7 10 -3.4 10 0 10C 0 6.7 0 3.4 0 0z" stroke="none" fill="#A88C7E" fill-rule="nonzero"/>
			<path transform="matrix(1 0 0 1 350 400)" d="M0 0C 6.6 0 13.2 0 20 0C 20 3.3 20 6.6 20 10C 16.7 10 13.4 10 10 10C 10 16.6 10 23.2 10 30C 6.7 30 3.4 30 0 30C 0 20.1 0 10.2 0 0z" stroke="none" fill="#A88C7E" fill-rule="nonzero"/>
			<path transform="matrix(1 0 0 1 390 290)" d="M0 0C 13.2 0 26.4 0 40 0C 40 3.3 40 6.6 40 10C 26.8 10 13.6 10 0 10C 0 6.7 0 3.4 0 0z" stroke="none" fill="#F8DBCB" fill-rule="nonzero"/>
			<path transform="matrix(1 0 0 1 190 280)" d="M0 0C 13.2 0 26.4 0 40 0C 40 3.3 40 6.6 40 10C 26.8 10 13.6 10 0 10C 0 6.7 0 3.4 0 0z" stroke="none" fill="#242033" fill-rule="nonzero"/>
			<path transform="matrix(1 0 0 1 190 260)" d="M0 0C 3.3 0 6.6 0 10 0C 10 6.6 10 13.2 10 20C 0.1 20 -9.8 20 -20 20C -20 16.7 -20 13.4 -20 10C -13.4 10 -6.8 10 0 10C 0 6.7 0 3.4 0 0z" stroke="none" fill="#CE9D94" fill-rule="nonzero"/>
			<path transform="matrix(1 0 0 1 100 140)" d="M0 0C 9.9 0 19.8 0 30 0C 30 3.3 30 6.6 30 10C 26.7 10 23.4 10 20 10C 20 13.3 20 16.6 20 20C 16.7 20 13.4 20 10 20C 10 16.7 10 13.4 10 10C 6.7 10 3.4 10 0 10C 0 6.7 0 3.4 0 0z" stroke="none" fill="#D77C8A" fill-rule="nonzero"/>
			<path transform="matrix(1 0 0 1 250 440)" d="M0 0C 3.3 0 6.6 0 10 0C 10 6.6 10 13.2 10 20C 3.4 20 -3.2 20 -10 20C -10 16.7 -10 13.4 -10 10C -6.7 10 -3.4 10 0 10C 0 6.7 0 3.4 0 0z" stroke="none" fill="#3A3E49" fill-rule="nonzero"/>
			<path transform="matrix(1 0 0 1 260 440)" d="M0 0C 6.6 0 13.2 0 20 0C 20 3.3 20 6.6 20 10C 16.7 10 13.4 10 10 10C 10 13.3 10 16.6 10 20C 6.7 20 3.4 20 0 20C 0 13.4 0 6.8 0 0z" stroke="none" fill="#59636E" fill-rule="nonzero"/>
			<path transform="matrix(1 0 0 1 190 430)" d="M0 0C 9.9 0 19.8 0 30 0C 30 3.3 30 6.6 30 10C 20.1 10 10.2 10 0 10C 0 6.7 0 3.4 0 0z" stroke="none" fill="#CE9D94" fill-rule="nonzero"/>
			<path transform="matrix(1 0 0 1 220 420)" d="M0 0C 6.6 0 13.2 0 20 0C 20 3.3 20 6.6 20 10C 16.7 10 13.4 10 10 10C 10 13.3 10 16.6 10 20C 6.7 20 3.4 20 0 20C 0 13.4 0 6.8 0 0z" stroke="none" fill="#F8DBCB" fill-rule="nonzero"/>
			<path transform="matrix(1 0 0 1 110 390)" d="M0 0C 6.6 0 13.2 0 20 0C 20 3.3 20 6.6 20 10C 16.7 10 13.4 10 10 10C 10 13.3 10 16.6 10 20C 6.7 20 3.4 20 0 20C 0 13.4 0 6.8 0 0z" stroke="none" fill="#CE9D94" fill-rule="nonzero"/>
			<path transform="matrix(1 0 0 1 150 360)" d="M0 0C 3.3 0 6.6 0 10 0C 10 9.9 10 19.8 10 30C 6.7 30 3.4 30 0 30C 0 20.1 0 10.2 0 0z" stroke="none" fill="#242033" fill-rule="nonzero"/>
			<path transform="matrix(1 0 0 1 340 310)" d="M0 0C 6.6 0 13.2 0 20 0C 20 6.6 20 13.2 20 20C 16.7 20 13.4 20 10 20C 10 16.7 10 13.4 10 10C 6.7 10 3.4 10 0 10C 0 6.7 0 3.4 0 0z" stroke="none" fill="#CE9D94" fill-rule="nonzero"/>
			<path transform="matrix(1 0 0 1 250 290)" d="M0 0C 9.9 0 19.8 0 30 0C 30 3.3 30 6.6 30 10C 20.1 10 10.2 10 0 10C 0 6.7 0 3.4 0 0z" stroke="none" fill="#3A3E49" fill-rule="nonzero"/>
			<path transform="matrix(1 0 0 1 230 280)" d="M0 0C 6.6 0 13.2 0 20 0C 20 3.3 20 6.6 20 10C 16.7 10 13.4 10 10 10C 10 13.3 10 16.6 10 20C 6.7 20 3.4 20 0 20C 0 13.4 0 6.8 0 0z" stroke="none" fill="#725933" fill-rule="nonzero"/>
			<path transform="matrix(1 0 0 1 370 190)" d="M0 0C 9.9 0 19.8 0 30 0C 30 3.3 30 6.6 30 10C 20.1 10 10.2 10 0 10C 0 6.7 0 3.4 0 0z" stroke="none" fill="#242033" fill-rule="nonzero"/>
			<path transform="matrix(1 0 0 1 80 190)" d="M0 0C 9.9 0 19.8 0 30 0C 30 3.3 30 6.6 30 10C 20.1 10 10.2 10 0 10C 0 6.7 0 3.4 0 0z" stroke="none" fill="#242033" fill-rule="nonzero"/>
			<path transform="matrix(1 0 0 1 390 130)" d="M0 0C 3.3 0 6.6 0 10 0C 10 6.6 10 13.2 10 20C 3.4 20 -3.2 20 -10 20C -10 16.7 -10 13.4 -10 10C -6.7 10 -3.4 10 0 10C 0 6.7 0 3.4 0 0z" stroke="none" fill="#3A3E49" fill-rule="nonzero"/>
			<path transform="matrix(1 0 0 1 350 130)" d="M0 0C 9.9 0 19.8 0 30 0C 30 3.3 30 6.6 30 10C 20.1 10 10.2 10 0 10C 0 6.7 0 3.4 0 0z" stroke="none" fill="#242033" fill-rule="nonzero"/>
			<path transform="matrix(1 0 0 1 290 130)" d="M0 0C 6.6 0 13.2 0 20 0C 20 6.6 20 13.2 20 20C 16.7 20 13.4 20 10 20C 10 16.7 10 13.4 10 10C 6.7 10 3.4 10 0 10C 0 6.7 0 3.4 0 0z" stroke="none" fill="#121212" fill-rule="nonzero"/>
			<path transform="matrix(1 0 0 1 170 130)" d="M0 0C 6.6 0 13.2 0 20 0C 20 6.6 20 13.2 20 20C 16.7 20 13.4 20 10 20C 10 16.7 10 13.4 10 10C 6.7 10 3.4 10 0 10C 0 6.7 0 3.4 0 0z" stroke="none" fill="#121212" fill-rule="nonzero"/>
			<path transform="matrix(1 0 0 1 260 430)" d="M0 0C 6.6 0 13.2 0 20 0C 20 3.3 20 6.6 20 10C 13.4 10 6.8 10 0 10C 0 6.7 0 3.4 0 0z" stroke="none" fill="#CE9D94" fill-rule="nonzero"/>
			<path transform="matrix(1 0 0 1 250 420)" d="M0 0C 3.3 0 6.6 0 10 0C 10 6.6 10 13.2 10 20C 6.7 20 3.4 20 0 20C 0 13.4 0 6.8 0 0z" stroke="none" fill="#F8DBCB" fill-rule="nonzero"/>
			<path transform="matrix(1 0 0 1 240 410)" d="M0 0C 3.3 0 6.6 0 10 0C 10 6.6 10 13.2 10 20C 6.7 20 3.4 20 0 20C 0 13.4 0 6.8 0 0z" stroke="none" fill="#59636E" fill-rule="nonzero"/>
			<path transform="matrix(1 0 0 1 350 390)" d="M0 0C 6.6 0 13.2 0 20 0C 20 3.3 20 6.6 20 10C 13.4 10 6.8 10 0 10C 0 6.7 0 3.4 0 0z" stroke="none" fill="#CE9D94" fill-rule="nonzero"/>
			<path transform="matrix(1 0 0 1 250 380)" d="M0 0C 6.6 0 13.2 0 20 0C 20 3.3 20 6.6 20 10C 13.4 10 6.8 10 0 10C 0 6.7 0 3.4 0 0z" stroke="none" fill="#F8DBCB" fill-rule="nonzero"/>
			<path transform="matrix(1 0 0 1 150 340)" d="M0 0C 3.3 0 6.6 0 10 0C 10 6.6 10 13.2 10 20C 6.7 20 3.4 20 0 20C 0 13.4 0 6.8 0 0z" stroke="none" fill="#F8DBCB" fill-rule="nonzero"/>
			<path transform="matrix(1 0 0 1 370 320)" d="M0 0C 6.6 0 13.2 0 20 0C 20 3.3 20 6.6 20 10C 13.4 10 6.8 10 0 10C 0 6.7 0 3.4 0 0z" stroke="none" fill="#CE9D94" fill-rule="nonzero"/>
			<path transform="matrix(1 0 0 1 230 320)" d="M0 0C 6.6 0 13.2 0 20 0C 20 3.3 20 6.6 20 10C 13.4 10 6.8 10 0 10C 0 6.7 0 3.4 0 0z" stroke="none" fill="#AC813B" fill-rule="nonzero"/>
			<path transform="matrix(1 0 0 1 90 320)" d="M0 0C 6.6 0 13.2 0 20 0C 20 3.3 20 6.6 20 10C 13.4 10 6.8 10 0 10C 0 6.7 0 3.4 0 0z" stroke="none" fill="#CE9D94" fill-rule="nonzero"/>
			<path transform="matrix(1 0 0 1 390 290)" d="M0 0C 6.6 0 13.2 0 20 0C 20 3.3 20 6.6 20 10C 13.4 10 6.8 10 0 10C 0 6.7 0 3.4 0 0z" stroke="none" fill="#CE9D94" fill-rule="nonzero"/>
			<path transform="matrix(1 0 0 1 330 290)" d="M0 0C 6.6 0 13.2 0 20 0C 20 3.3 20 6.6 20 10C 13.4 10 6.8 10 0 10C 0 6.7 0 3.4 0 0z" stroke="none" fill="#FDFDFD" fill-rule="nonzero"/>
			<path transform="matrix(1 0 0 1 130 290)" d="M0 0C 6.6 0 13.2 0 20 0C 20 3.3 20 6.6 20 10C 13.4 10 6.8 10 0 10C 0 6.7 0 3.4 0 0z" stroke="none" fill="#FDFDFD" fill-rule="nonzero"/>
			<path transform="matrix(1 0 0 1 70 290)" d="M0 0C 6.6 0 13.2 0 20 0C 20 3.3 20 6.6 20 10C 13.4 10 6.8 10 0 10C 0 6.7 0 3.4 0 0z" stroke="none" fill="#CE9D94" fill-rule="nonzero"/>
			<path transform="matrix(1 0 0 1 50 290)" d="M0 0C 6.6 0 13.2 0 20 0C 20 3.3 20 6.6 20 10C 13.4 10 6.8 10 0 10C 0 6.7 0 3.4 0 0z" stroke="none" fill="#F8DBCB" fill-rule="nonzero"/>
			<path transform="matrix(1 0 0 1 380 280)" d="M0 0C 6.6 0 13.2 0 20 0C 20 3.3 20 6.6 20 10C 13.4 10 6.8 10 0 10C 0 6.7 0 3.4 0 0z" stroke="none" fill="#F8DBCB" fill-rule="nonzero"/>
			<path transform="matrix(1 0 0 1 80 280)" d="M0 0C 6.6 0 13.2 0 20 0C 20 3.3 20 6.6 20 10C 13.4 10 6.8 10 0 10C 0 6.7 0 3.4 0 0z" stroke="none" fill="#F8DBCB" fill-rule="nonzero"/>
			<path transform="matrix(1 0 0 1 150 260)" d="M0 0C 6.6 0 13.2 0 20 0C 20 3.3 20 6.6 20 10C 13.4 10 6.8 10 0 10C 0 6.7 0 3.4 0 0z" stroke="none" fill="#CE9D94" fill-rule="nonzero"/>
			<path transform="matrix(1 0 0 1 260 210)" d="M0 0C 6.6 0 13.2 0 20 0C 20 3.3 20 6.6 20 10C 13.4 10 6.8 10 0 10C 0 6.7 0 3.4 0 0z" stroke="none" fill="#1A0814" fill-rule="nonzero"/>
			<path transform="matrix(1 0 0 1 200 210)" d="M0 0C 6.6 0 13.2 0 20 0C 20 3.3 20 6.6 20 10C 13.4 10 6.8 10 0 10C 0 6.7 0 3.4 0 0z" stroke="none" fill="#1A0814" fill-rule="nonzero"/>
			<path transform="matrix(1 0 0 1 260 200)" d="M0 0C 6.6 0 13.2 0 20 0C 20 3.3 20 6.6 20 10C 13.4 10 6.8 10 0 10C 0 6.7 0 3.4 0 0z" stroke="none" fill="#FDFDFD" fill-rule="nonzero"/>
			<path transform="matrix(1 0 0 1 230 200)" d="M0 0C 6.6 0 13.2 0 20 0C 20 3.3 20 6.6 20 10C 13.4 10 6.8 10 0 10C 0 6.7 0 3.4 0 0z" stroke="none" fill="#FDFDFD" fill-rule="nonzero"/>
			<path transform="matrix(1 0 0 1 400 180)" d="M0 0C 6.6 0 13.2 0 20 0C 20 3.3 20 6.6 20 10C 13.4 10 6.8 10 0 10C 0 6.7 0 3.4 0 0z" stroke="none" fill="#242033" fill-rule="nonzero"/>
			<path transform="matrix(1 0 0 1 260 180)" d="M0 0C 6.6 0 13.2 0 20 0C 20 3.3 20 6.6 20 10C 13.4 10 6.8 10 0 10C 0 6.7 0 3.4 0 0z" stroke="none" fill="#242033" fill-rule="nonzero"/>
			<path transform="matrix(1 0 0 1 60 180)" d="M0 0C 6.6 0 13.2 0 20 0C 20 3.3 20 6.6 20 10C 13.4 10 6.8 10 0 10C 0 6.7 0 3.4 0 0z" stroke="none" fill="#242033" fill-rule="nonzero"/>
			<path transform="matrix(1 0 0 1 410 160)" d="M0 0C 3.3 0 6.6 0 10 0C 10 6.6 10 13.2 10 20C 6.7 20 3.4 20 0 20C 0 13.4 0 6.8 0 0z" stroke="none" fill="#D77C8A" fill-rule="nonzero"/>
			<path transform="matrix(1 0 0 1 80 140)" d="M0 0C 6.6 0 13.2 0 20 0C 20 3.3 20 6.6 20 10C 13.4 10 6.8 10 0 10C 0 6.7 0 3.4 0 0z" stroke="none" fill="#242033" fill-rule="nonzero"/>
			<path transform="matrix(1 0 0 1 290 100)" d="M0 0C 6.6 0 13.2 0 20 0C 20 3.3 20 6.6 20 10C 13.4 10 6.8 10 0 10C 0 6.7 0 3.4 0 0z" stroke="none" fill="#121212" fill-rule="nonzero"/>
			<path transform="matrix(1 0 0 1 170 100)" d="M0 0C 6.6 0 13.2 0 20 0C 20 3.3 20 6.6 20 10C 13.4 10 6.8 10 0 10C 0 6.7 0 3.4 0 0z" stroke="none" fill="#323232" fill-rule="nonzero"/>
			<path transform="matrix(1 0 0 1 100 100)" d="M0 0C 6.6 0 13.2 0 20 0C 20 3.3 20 6.6 20 10C 13.4 10 6.8 10 0 10C 0 6.7 0 3.4 0 0z" stroke="none" fill="#59636E" fill-rule="nonzero"/>
			<path transform="matrix(1 0 0 1 290 90)" d="M0 0C 6.6 0 13.2 0 20 0C 20 3.3 20 6.6 20 10C 13.4 10 6.8 10 0 10C 0 6.7 0 3.4 0 0z" stroke="none" fill="#59636E" fill-rule="nonzero"/>
			<path transform="matrix(1 0 0 1 160 90)" d="M0 0C 6.6 0 13.2 0 20 0C 20 3.3 20 6.6 20 10C 13.4 10 6.8 10 0 10C 0 6.7 0 3.4 0 0z" stroke="none" fill="#F8DBCB" fill-rule="nonzero"/>
			<path transform="matrix(1 0 0 1 270 80)" d="M0 0C 6.6 0 13.2 0 20 0C 20 3.3 20 6.6 20 10C 13.4 10 6.8 10 0 10C 0 6.7 0 3.4 0 0z" stroke="none" fill="#F8DBCB" fill-rule="nonzero"/>
			<path transform="matrix(1 0 0 1 310 50)" d="M0 0C 3.3 0 6.6 0 10 0C 10 6.6 10 13.2 10 20C 6.7 20 3.4 20 0 20C 0 13.4 0 6.8 0 0z" stroke="none" fill="#59636E" fill-rule="nonzero"/>
			<path transform="matrix(1 0 0 1 160 50)" d="M0 0C 3.3 0 6.6 0 10 0C 10 6.6 10 13.2 10 20C 6.7 20 3.4 20 0 20C 0 13.4 0 6.8 0 0z" stroke="none" fill="#59636E" fill-rule="nonzero"/>
			<path transform="matrix(1 0 0 1 280 0)" d="M0 0C 6.6 0 13.2 0 20 0C 20 3.3 20 6.6 20 10C 13.4 10 6.8 10 0 10C 0 6.7 0 3.4 0 0z" stroke="none" fill="#F0E6DA" fill-rule="nonzero"/>
			<path transform="matrix(1 0 0 1 270 460)" d="M0 0C 3.3 0 6.6 0 10 0C 10 3.3 10 6.6 10 10C 6.7 10 3.4 10 0 10C 0 6.7 0 3.4 0 0z" stroke="none" fill="#59636E" fill-rule="nonzero"/>
			<path transform="matrix(1 0 0 1 260 460)" d="M0 0C 3.3 0 6.6 0 10 0C 10 3.3 10 6.6 10 10C 6.7 10 3.4 10 0 10C 0 6.7 0 3.4 0 0z" stroke="none" fill="#3A3E49" fill-rule="nonzero"/>
			<path transform="matrix(1 0 0 1 240 460)" d="M0 0C 3.3 0 6.6 0 10 0C 10 3.3 10 6.6 10 10C 6.7 10 3.4 10 0 10C 0 6.7 0 3.4 0 0z" stroke="none" fill="#3A3E49" fill-rule="nonzero"/>
			<path transform="matrix(1 0 0 1 230 460)" d="M0 0C 3.3 0 6.6 0 10 0C 10 3.3 10 6.6 10 10C 6.7 10 3.4 10 0 10C 0 6.7 0 3.4 0 0z" stroke="none" fill="#242033" fill-rule="nonzero"/>
			<path transform="matrix(1 0 0 1 220 460)" d="M0 0C 3.3 0 6.6 0 10 0C 10 3.3 10 6.6 10 10C 6.7 10 3.4 10 0 10C 0 6.7 0 3.4 0 0z" stroke="none" fill="#3A3E49" fill-rule="nonzero"/>
			<path transform="matrix(1 0 0 1 200 460)" d="M0 0C 3.3 0 6.6 0 10 0C 10 3.3 10 6.6 10 10C 6.7 10 3.4 10 0 10C 0 6.7 0 3.4 0 0z" stroke="none" fill="#3A3E49" fill-rule="nonzero"/>
			<path transform="matrix(1 0 0 1 240 450)" d="M0 0C 3.3 0 6.6 0 10 0C 10 3.3 10 6.6 10 10C 6.7 10 3.4 10 0 10C 0 6.7 0 3.4 0 0z" stroke="none" fill="#242033" fill-rule="nonzero"/>
			<path transform="matrix(1 0 0 1 230 450)" d="M0 0C 3.3 0 6.6 0 10 0C 10 3.3 10 6.6 10 10C 6.7 10 3.4 10 0 10C 0 6.7 0 3.4 0 0z" stroke="none" fill="#3A3E49" fill-rule="nonzero"/>
			<path transform="matrix(1 0 0 1 290 440)" d="M0 0C 3.3 0 6.6 0 10 0C 10 3.3 10 6.6 10 10C 6.7 10 3.4 10 0 10C 0 6.7 0 3.4 0 0z" stroke="none" fill="#CE9D94" fill-rule="nonzero"/>
			<path transform="matrix(1 0 0 1 250 440)" d="M0 0C 3.3 0 6.6 0 10 0C 10 3.3 10 6.6 10 10C 6.7 10 3.4 10 0 10C 0 6.7 0 3.4 0 0z" stroke="none" fill="#242033" fill-rule="nonzero"/>
			<path transform="matrix(1 0 0 1 220 440)" d="M0 0C 3.3 0 6.6 0 10 0C 10 3.3 10 6.6 10 10C 6.7 10 3.4 10 0 10C 0 6.7 0 3.4 0 0z" stroke="none" fill="#3A3E49" fill-rule="nonzero"/>
			<path transform="matrix(1 0 0 1 180 440)" d="M0 0C 3.3 0 6.6 0 10 0C 10 3.3 10 6.6 10 10C 6.7 10 3.4 10 0 10C 0 6.7 0 3.4 0 0z" stroke="none" fill="#CE9D94" fill-rule="nonzero"/>
			<path transform="matrix(1 0 0 1 340 430)" d="M0 0C 3.3 0 6.6 0 10 0C 10 3.3 10 6.6 10 10C 6.7 10 3.4 10 0 10C 0 6.7 0 3.4 0 0z" stroke="none" fill="#59636E" fill-rule="nonzero"/>
			<path transform="matrix(1 0 0 1 230 430)" d="M0 0C 3.3 0 6.6 0 10 0C 10 3.3 10 6.6 10 10C 6.7 10 3.4 10 0 10C 0 6.7 0 3.4 0 0z" stroke="none" fill="#59636E" fill-rule="nonzero"/>
			<path transform="matrix(1 0 0 1 130 430)" d="M0 0C 3.3 0 6.6 0 10 0C 10 3.3 10 6.6 10 10C 6.7 10 3.4 10 0 10C 0 6.7 0 3.4 0 0z" stroke="none" fill="#59636E" fill-rule="nonzero"/>
			<path transform="matrix(1 0 0 1 350 420)" d="M0 0C 3.3 0 6.6 0 10 0C 10 3.3 10 6.6 10 10C 6.7 10 3.4 10 0 10C 0 6.7 0 3.4 0 0z" stroke="none" fill="#59636E" fill-rule="nonzero"/>
			<path transform="matrix(1 0 0 1 320 420)" d="M0 0C 3.3 0 6.6 0 10 0C 10 3.3 10 6.6 10 10C 6.7 10 3.4 10 0 10C 0 6.7 0 3.4 0 0z" stroke="none" fill="#CE9D94" fill-rule="nonzero"/>
			<path transform="matrix(1 0 0 1 150 420)" d="M0 0C 3.3 0 6.6 0 10 0C 10 3.3 10 6.6 10 10C 6.7 10 3.4 10 0 10C 0 6.7 0 3.4 0 0z" stroke="none" fill="#CE9D94" fill-rule="nonzero"/>
			<path transform="matrix(1 0 0 1 120 420)" d="M0 0C 3.3 0 6.6 0 10 0C 10 3.3 10 6.6 10 10C 6.7 10 3.4 10 0 10C 0 6.7 0 3.4 0 0z" stroke="none" fill="#59636E" fill-rule="nonzero"/>
			<path transform="matrix(1 0 0 1 360 410)" d="M0 0C 3.3 0 6.6 0 10 0C 10 3.3 10 6.6 10 10C 6.7 10 3.4 10 0 10C 0 6.7 0 3.4 0 0z" stroke="none" fill="#3A3E49" fill-rule="nonzero"/>
			<path transform="matrix(1 0 0 1 350 410)" d="M0 0C 3.3 0 6.6 0 10 0C 10 3.3 10 6.6 10 10C 6.7 10 3.4 10 0 10C 0 6.7 0 3.4 0 0z" stroke="none" fill="#A88C7E" fill-rule="nonzero"/>
			<path transform="matrix(1 0 0 1 330 410)" d="M0 0C 3.3 0 6.6 0 10 0C 10 3.3 10 6.6 10 10C 6.7 10 3.4 10 0 10C 0 6.7 0 3.4 0 0z" stroke="none" fill="#CE9D94" fill-rule="nonzero"/>
			<path transform="matrix(1 0 0 1 260 410)" d="M0 0C 3.3 0 6.6 0 10 0C 10 3.3 10 6.6 10 10C 6.7 10 3.4 10 0 10C 0 6.7 0 3.4 0 0z" stroke="none" fill="#F8DBCB" fill-rule="nonzero"/>
			<path transform="matrix(1 0 0 1 250 410)" d="M0 0C 3.3 0 6.6 0 10 0C 10 3.3 10 6.6 10 10C 6.7 10 3.4 10 0 10C 0 6.7 0 3.4 0 0z" stroke="none" fill="#FDFDFD" fill-rule="nonzero"/>
			<path transform="matrix(1 0 0 1 240 410)" d="M0 0C 3.3 0 6.6 0 10 0C 10 3.3 10 6.6 10 10C 6.7 10 3.4 10 0 10C 0 6.7 0 3.4 0 0z" stroke="none" fill="#242033" fill-rule="nonzero"/>
			<path transform="matrix(1 0 0 1 230 410)" d="M0 0C 3.3 0 6.6 0 10 0C 10 3.3 10 6.6 10 10C 6.7 10 3.4 10 0 10C 0 6.7 0 3.4 0 0z" stroke="none" fill="#59636E" fill-rule="nonzero"/>
			<path transform="matrix(1 0 0 1 210 410)" d="M0 0C 3.3 0 6.6 0 10 0C 10 3.3 10 6.6 10 10C 6.7 10 3.4 10 0 10C 0 6.7 0 3.4 0 0z" stroke="none" fill="#F8DBCB" fill-rule="nonzero"/>
			<path transform="matrix(1 0 0 1 140 410)" d="M0 0C 3.3 0 6.6 0 10 0C 10 3.3 10 6.6 10 10C 6.7 10 3.4 10 0 10C 0 6.7 0 3.4 0 0z" stroke="none" fill="#CE9D94" fill-rule="nonzero"/>
			<path transform="matrix(1 0 0 1 110 410)" d="M0 0C 3.3 0 6.6 0 10 0C 10 3.3 10 6.6 10 10C 6.7 10 3.4 10 0 10C 0 6.7 0 3.4 0 0z" stroke="none" fill="#59636E" fill-rule="nonzero"/>
			<path transform="matrix(1 0 0 1 350 400)" d="M0 0C 3.3 0 6.6 0 10 0C 10 3.3 10 6.6 10 10C 6.7 10 3.4 10 0 10C 0 6.7 0 3.4 0 0z" stroke="none" fill="#3A3E49" fill-rule="nonzero"/>
			<path transform="matrix(1 0 0 1 340 400)" d="M0 0C 3.3 0 6.6 0 10 0C 10 3.3 10 6.6 10 10C 6.7 10 3.4 10 0 10C 0 6.7 0 3.4 0 0z" stroke="none" fill="#CE9D94" fill-rule="nonzero"/>
			<path transform="matrix(1 0 0 1 240 400)" d="M0 0C 3.3 0 6.6 0 10 0C 10 3.3 10 6.6 10 10C 6.7 10 3.4 10 0 10C 0 6.7 0 3.4 0 0z" stroke="none" fill="#59636E" fill-rule="nonzero"/>
			<path transform="matrix(1 0 0 1 230 400)" d="M0 0C 3.3 0 6.6 0 10 0C 10 3.3 10 6.6 10 10C 6.7 10 3.4 10 0 10C 0 6.7 0 3.4 0 0z" stroke="none" fill="#CE9D94" fill-rule="nonzero"/>
			<path transform="matrix(1 0 0 1 220 400)" d="M0 0C 3.3 0 6.6 0 10 0C 10 3.3 10 6.6 10 10C 6.7 10 3.4 10 0 10C 0 6.7 0 3.4 0 0z" stroke="none" fill="#F8DBCB" fill-rule="nonzero"/>
			<path transform="matrix(1 0 0 1 130 400)" d="M0 0C 3.3 0 6.6 0 10 0C 10 3.3 10 6.6 10 10C 6.7 10 3.4 10 0 10C 0 6.7 0 3.4 0 0z" stroke="none" fill="#CE9D94" fill-rule="nonzero"/>
			<path transform="matrix(1 0 0 1 120 400)" d="M0 0C 3.3 0 6.6 0 10 0C 10 3.3 10 6.6 10 10C 6.7 10 3.4 10 0 10C 0 6.7 0 3.4 0 0z" stroke="none" fill="#3A3E49" fill-rule="nonzero"/>
			<path transform="matrix(1 0 0 1 110 400)" d="M0 0C 3.3 0 6.6 0 10 0C 10 3.3 10 6.6 10 10C 6.7 10 3.4 10 0 10C 0 6.7 0 3.4 0 0z" stroke="none" fill="#A88C7E" fill-rule="nonzero"/>
			<path transform="matrix(1 0 0 1 230 390)" d="M0 0C 3.3 0 6.6 0 10 0C 10 3.3 10 6.6 10 10C 6.7 10 3.4 10 0 10C 0 6.7 0 3.4 0 0z" stroke="none" fill="#59636E" fill-rule="nonzero"/>
			<path transform="matrix(1 0 0 1 210 390)" d="M0 0C 3.3 0 6.6 0 10 0C 10 3.3 10 6.6 10 10C 6.7 10 3.4 10 0 10C 0 6.7 0 3.4 0 0z" stroke="none" fill="#F8DBCB" fill-rule="nonzero"/>
			<path transform="matrix(1 0 0 1 250 380)" d="M0 0C 3.3 0 6.6 0 10 0C 10 3.3 10 6.6 10 10C 6.7 10 3.4 10 0 10C 0 6.7 0 3.4 0 0z" stroke="none" fill="#FDFDFD" fill-rule="nonzero"/>
			<path transform="matrix(1 0 0 1 240 380)" d="M0 0C 3.3 0 6.6 0 10 0C 10 3.3 10 6.6 10 10C 6.7 10 3.4 10 0 10C 0 6.7 0 3.4 0 0z" stroke="none" fill="#59636E" fill-rule="nonzero"/>
			<path transform="matrix(1 0 0 1 230 380)" d="M0 0C 3.3 0 6.6 0 10 0C 10 3.3 10 6.6 10 10C 6.7 10 3.4 10 0 10C 0 6.7 0 3.4 0 0z" stroke="none" fill="#CE9D94" fill-rule="nonzero"/>
			<path transform="matrix(1 0 0 1 220 380)" d="M0 0C 3.3 0 6.6 0 10 0C 10 3.3 10 6.6 10 10C 6.7 10 3.4 10 0 10C 0 6.7 0 3.4 0 0z" stroke="none" fill="#F8DBCB" fill-rule="nonzero"/>
			<path transform="matrix(1 0 0 1 320 370)" d="M0 0C 3.3 0 6.6 0 10 0C 10 3.3 10 6.6 10 10C 6.7 10 3.4 10 0 10C 0 6.7 0 3.4 0 0z" stroke="none" fill="#CE9D94" fill-rule="nonzero"/>
			<path transform="matrix(1 0 0 1 250 370)" d="M0 0C 3.3 0 6.6 0 10 0C 10 3.3 10 6.6 10 10C 6.7 10 3.4 10 0 10C 0 6.7 0 3.4 0 0z" stroke="none" fill="#F8DBCB" fill-rule="nonzero"/>
			<path transform="matrix(1 0 0 1 240 370)" d="M0 0C 3.3 0 6.6 0 10 0C 10 3.3 10 6.6 10 10C 6.7 10 3.4 10 0 10C 0 6.7 0 3.4 0 0z" stroke="none" fill="#CE9D94" fill-rule="nonzero"/>
			<path transform="matrix(1 0 0 1 230 370)" d="M0 0C 3.3 0 6.6 0 10 0C 10 3.3 10 6.6 10 10C 6.7 10 3.4 10 0 10C 0 6.7 0 3.4 0 0z" stroke="none" fill="#F8DBCB" fill-rule="nonzero"/>
			<path transform="matrix(1 0 0 1 210 370)" d="M0 0C 3.3 0 6.6 0 10 0C 10 3.3 10 6.6 10 10C 6.7 10 3.4 10 0 10C 0 6.7 0 3.4 0 0z" stroke="none" fill="#F8DBCB" fill-rule="nonzero"/>
			<path transform="matrix(1 0 0 1 330 360)" d="M0 0C 3.3 0 6.6 0 10 0C 10 3.3 10 6.6 10 10C 6.7 10 3.4 10 0 10C 0 6.7 0 3.4 0 0z" stroke="none" fill="#CE9D94" fill-rule="nonzero"/>
			<path transform="matrix(1 0 0 1 320 360)" d="M0 0C 3.3 0 6.6 0 10 0C 10 3.3 10 6.6 10 10C 6.7 10 3.4 10 0 10C 0 6.7 0 3.4 0 0z" stroke="none" fill="#F8DBCB" fill-rule="nonzero"/>
			<path transform="matrix(1 0 0 1 230 360)" d="M0 0C 3.3 0 6.6 0 10 0C 10 3.3 10 6.6 10 10C 6.7 10 3.4 10 0 10C 0 6.7 0 3.4 0 0z" stroke="none" fill="#CE9D94" fill-rule="nonzero"/>
			<path transform="matrix(1 0 0 1 220 360)" d="M0 0C 3.3 0 6.6 0 10 0C 10 3.3 10 6.6 10 10C 6.7 10 3.4 10 0 10C 0 6.7 0 3.4 0 0z" stroke="none" fill="#F8DBCB" fill-rule="nonzero"/>
			<path transform="matrix(1 0 0 1 320 350)" d="M0 0C 3.3 0 6.6 0 10 0C 10 3.3 10 6.6 10 10C 6.7 10 3.4 10 0 10C 0 6.7 0 3.4 0 0z" stroke="none" fill="#CE9D94" fill-rule="nonzero"/>
			<path transform="matrix(1 0 0 1 250 350)" d="M0 0C 3.3 0 6.6 0 10 0C 10 3.3 10 6.6 10 10C 6.7 10 3.4 10 0 10C 0 6.7 0 3.4 0 0z" stroke="none" fill="#F8DBCB" fill-rule="nonzero"/>
			<path transform="matrix(1 0 0 1 230 350)" d="M0 0C 3.3 0 6.6 0 10 0C 10 3.3 10 6.6 10 10C 6.7 10 3.4 10 0 10C 0 6.7 0 3.4 0 0z" stroke="none" fill="#F8DBCB" fill-rule="nonzero"/>
			<path transform="matrix(1 0 0 1 140 350)" d="M0 0C 3.3 0 6.6 0 10 0C 10 3.3 10 6.6 10 10C 6.7 10 3.4 10 0 10C 0 6.7 0 3.4 0 0z" stroke="none" fill="#242033" fill-rule="nonzero"/>
			<path transform="matrix(1 0 0 1 130 350)" d="M0 0C 3.3 0 6.6 0 10 0C 10 3.3 10 6.6 10 10C 6.7 10 3.4 10 0 10C 0 6.7 0 3.4 0 0z" stroke="none" fill="#F8DBCB" fill-rule="nonzero"/>
			<path transform="matrix(1 0 0 1 320 340)" d="M0 0C 3.3 0 6.6 0 10 0C 10 3.3 10 6.6 10 10C 6.7 10 3.4 10 0 10C 0 6.7 0 3.4 0 0z" stroke="none" fill="#F8DBCB" fill-rule="nonzero"/>
			<path transform="matrix(1 0 0 1 260 340)" d="M0 0C 3.3 0 6.6 0 10 0C 10 3.3 10 6.6 10 10C 6.7 10 3.4 10 0 10C 0 6.7 0 3.4 0 0z" stroke="none" fill="#F8DBCB" fill-rule="nonzero"/>
			<path transform="matrix(1 0 0 1 210 340)" d="M0 0C 3.3 0 6.6 0 10 0C 10 3.3 10 6.6 10 10C 6.7 10 3.4 10 0 10C 0 6.7 0 3.4 0 0z" stroke="none" fill="#F8DBCB" fill-rule="nonzero"/>
			<path transform="matrix(1 0 0 1 350 330)" d="M0 0C 3.3 0 6.6 0 10 0C 10 3.3 10 6.6 10 10C 6.7 10 3.4 10 0 10C 0 6.7 0 3.4 0 0z" stroke="none" fill="#F8DBCB" fill-rule="nonzero"/>
			<path transform="matrix(1 0 0 1 340 330)" d="M0 0C 3.3 0 6.6 0 10 0C 10 3.3 10 6.6 10 10C 6.7 10 3.4 10 0 10C 0 6.7 0 3.4 0 0z" stroke="none" fill="#CE9D94" fill-rule="nonzero"/>
			<path transform="matrix(1 0 0 1 330 330)" d="M0 0C 3.3 0 6.6 0 10 0C 10 3.3 10 6.6 10 10C 6.7 10 3.4 10 0 10C 0 6.7 0 3.4 0 0z" stroke="none" fill="#FDFDFD" fill-rule="nonzero"/>
			<path transform="matrix(1 0 0 1 320 330)" d="M0 0C 3.3 0 6.6 0 10 0C 10 3.3 10 6.6 10 10C 6.7 10 3.4 10 0 10C 0 6.7 0 3.4 0 0z" stroke="none" fill="#CE9D94" fill-rule="nonzero"/>
			<path transform="matrix(1 0 0 1 150 330)" d="M0 0C 3.3 0 6.6 0 10 0C 10 3.3 10 6.6 10 10C 6.7 10 3.4 10 0 10C 0 6.7 0 3.4 0 0z" stroke="none" fill="#CE9D94" fill-rule="nonzero"/>
			<path transform="matrix(1 0 0 1 140 330)" d="M0 0C 3.3 0 6.6 0 10 0C 10 3.3 10 6.6 10 10C 6.7 10 3.4 10 0 10C 0 6.7 0 3.4 0 0z" stroke="none" fill="#FDFDFD" fill-rule="nonzero"/>
			<path transform="matrix(1 0 0 1 130 330)" d="M0 0C 3.3 0 6.6 0 10 0C 10 3.3 10 6.6 10 10C 6.7 10 3.4 10 0 10C 0 6.7 0 3.4 0 0z" stroke="none" fill="#CE9D94" fill-rule="nonzero"/>
			<path transform="matrix(1 0 0 1 120 330)" d="M0 0C 3.3 0 6.6 0 10 0C 10 3.3 10 6.6 10 10C 6.7 10 3.4 10 0 10C 0 6.7 0 3.4 0 0z" stroke="none" fill="#F8DBCB" fill-rule="nonzero"/>
			<path transform="matrix(1 0 0 1 390 320)" d="M0 0C 3.3 0 6.6 0 10 0C 10 3.3 10 6.6 10 10C 6.7 10 3.4 10 0 10C 0 6.7 0 3.4 0 0z" stroke="none" fill="#F8DBCB" fill-rule="nonzero"/>
			<path transform="matrix(1 0 0 1 340 320)" d="M0 0C 3.3 0 6.6 0 10 0C 10 3.3 10 6.6 10 10C 6.7 10 3.4 10 0 10C 0 6.7 0 3.4 0 0z" stroke="none" fill="#F8DBCB" fill-rule="nonzero"/>
			<path transform="matrix(1 0 0 1 330 320)" d="M0 0C 3.3 0 6.6 0 10 0C 10 3.3 10 6.6 10 10C 6.7 10 3.4 10 0 10C 0 6.7 0 3.4 0 0z" stroke="none" fill="#CE9D94" fill-rule="nonzero"/>
			<path transform="matrix(1 0 0 1 320 320)" d="M0 0C 3.3 0 6.6 0 10 0C 10 3.3 10 6.6 10 10C 6.7 10 3.4 10 0 10C 0 6.7 0 3.4 0 0z" stroke="none" fill="#F8DBCB" fill-rule="nonzero"/>
			<path transform="matrix(1 0 0 1 150 320)" d="M0 0C 3.3 0 6.6 0 10 0C 10 3.3 10 6.6 10 10C 6.7 10 3.4 10 0 10C 0 6.7 0 3.4 0 0z" stroke="none" fill="#F8DBCB" fill-rule="nonzero"/>
			<path transform="matrix(1 0 0 1 140 320)" d="M0 0C 3.3 0 6.6 0 10 0C 10 3.3 10 6.6 10 10C 6.7 10 3.4 10 0 10C 0 6.7 0 3.4 0 0z" stroke="none" fill="#CE9D94" fill-rule="nonzero"/>
			<path transform="matrix(1 0 0 1 130 320)" d="M0 0C 3.3 0 6.6 0 10 0C 10 3.3 10 6.6 10 10C 6.7 10 3.4 10 0 10C 0 6.7 0 3.4 0 0z" stroke="none" fill="#F8DBCB" fill-rule="nonzero"/>
			<path transform="matrix(1 0 0 1 80 320)" d="M0 0C 3.3 0 6.6 0 10 0C 10 3.3 10 6.6 10 10C 6.7 10 3.4 10 0 10C 0 6.7 0 3.4 0 0z" stroke="none" fill="#F8DBCB" fill-rule="nonzero"/>
			<path transform="matrix(1 0 0 1 400 310)" d="M0 0C 3.3 0 6.6 0 10 0C 10 3.3 10 6.6 10 10C 6.7 10 3.4 10 0 10C 0 6.7 0 3.4 0 0z" stroke="none" fill="#F8DBCB" fill-rule="nonzero"/>
			<path transform="matrix(1 0 0 1 330 310)" d="M0 0C 3.3 0 6.6 0 10 0C 10 3.3 10 6.6 10 10C 6.7 10 3.4 10 0 10C 0 6.7 0 3.4 0 0z" stroke="none" fill="#F8DBCB" fill-rule="nonzero"/>
			<path transform="matrix(1 0 0 1 320 310)" d="M0 0C 3.3 0 6.6 0 10 0C 10 3.3 10 6.6 10 10C 6.7 10 3.4 10 0 10C 0 6.7 0 3.4 0 0z" stroke="none" fill="#CE9D94" fill-rule="nonzero"/>
			<path transform="matrix(1 0 0 1 310 310)" d="M0 0C 3.3 0 6.6 0 10 0C 10 3.3 10 6.6 10 10C 6.7 10 3.4 10 0 10C 0 6.7 0 3.4 0 0z" stroke="none" fill="#59636E" fill-rule="nonzero"/>
			<path transform="matrix(1 0 0 1 280 310)" d="M0 0C 3.3 0 6.6 0 10 0C 10 3.3 10 6.6 10 10C 6.7 10 3.4 10 0 10C 0 6.7 0 3.4 0 0z" stroke="none" fill="#FDFDFD" fill-rule="nonzero"/>
			<path transform="matrix(1 0 0 1 200 310)" d="M0 0C 3.3 0 6.6 0 10 0C 10 3.3 10 6.6 10 10C 6.7 10 3.4 10 0 10C 0 6.7 0 3.4 0 0z" stroke="none" fill="#F8DBCB" fill-rule="nonzero"/>
			<path transform="matrix(1 0 0 1 160 310)" d="M0 0C 3.3 0 6.6 0 10 0C 10 3.3 10 6.6 10 10C 6.7 10 3.4 10 0 10C 0 6.7 0 3.4 0 0z" stroke="none" fill="#59636E" fill-rule="nonzero"/>
			<path transform="matrix(1 0 0 1 150 310)" d="M0 0C 3.3 0 6.6 0 10 0C 10 3.3 10 6.6 10 10C 6.7 10 3.4 10 0 10C 0 6.7 0 3.4 0 0z" stroke="none" fill="#CE9D94" fill-rule="nonzero"/>
			<path transform="matrix(1 0 0 1 140 310)" d="M0 0C 3.3 0 6.6 0 10 0C 10 3.3 10 6.6 10 10C 6.7 10 3.4 10 0 10C 0 6.7 0 3.4 0 0z" stroke="none" fill="#F8DBCB" fill-rule="nonzero"/>
			<path transform="matrix(1 0 0 1 70 310)" d="M0 0C 3.3 0 6.6 0 10 0C 10 3.3 10 6.6 10 10C 6.7 10 3.4 10 0 10C 0 6.7 0 3.4 0 0z" stroke="none" fill="#F8DBCB" fill-rule="nonzero"/>
			<path transform="matrix(1 0 0 1 340 300)" d="M0 0C 3.3 0 6.6 0 10 0C 10 3.3 10 6.6 10 10C 6.7 10 3.4 10 0 10C 0 6.7 0 3.4 0 0z" stroke="none" fill="#F8DBCB" fill-rule="nonzero"/>
			<path transform="matrix(1 0 0 1 330 300)" d="M0 0C 3.3 0 6.6 0 10 0C 10 3.3 10 6.6 10 10C 6.7 10 3.4 10 0 10C 0 6.7 0 3.4 0 0z" stroke="none" fill="#CE9D94" fill-rule="nonzero"/>
			<path transform="matrix(1 0 0 1 310 300)" d="M0 0C 3.3 0 6.6 0 10 0C 10 3.3 10 6.6 10 10C 6.7 10 3.4 10 0 10C 0 6.7 0 3.4 0 0z" stroke="none" fill="#CE9D94" fill-rule="nonzero"/>
			<path transform="matrix(1 0 0 1 300 300)" d="M0 0C 3.3 0 6.6 0 10 0C 10 3.3 10 6.6 10 10C 6.7 10 3.4 10 0 10C 0 6.7 0 3.4 0 0z" stroke="none" fill="#59636E" fill-rule="nonzero"/>
			<path transform="matrix(1 0 0 1 290 300)" d="M0 0C 3.3 0 6.6 0 10 0C 10 3.3 10 6.6 10 10C 6.7 10 3.4 10 0 10C 0 6.7 0 3.4 0 0z" stroke="none" fill="#FDFDFD" fill-rule="nonzero"/>
			<path transform="matrix(1 0 0 1 250 300)" d="M0 0C 3.3 0 6.6 0 10 0C 10 3.3 10 6.6 10 10C 6.7 10 3.4 10 0 10C 0 6.7 0 3.4 0 0z" stroke="none" fill="#FCD54A" fill-rule="nonzero"/>
			<path transform="matrix(1 0 0 1 210 300)" d="M0 0C 3.3 0 6.6 0 10 0C 10 3.3 10 6.6 10 10C 6.7 10 3.4 10 0 10C 0 6.7 0 3.4 0 0z" stroke="none" fill="#F8DBCB" fill-rule="nonzero"/>
			<path transform="matrix(1 0 0 1 200 300)" d="M0 0C 3.3 0 6.6 0 10 0C 10 3.3 10 6.6 10 10C 6.7 10 3.4 10 0 10C 0 6.7 0 3.4 0 0z" stroke="none" fill="#FDFDFD" fill-rule="nonzero"/>
			<path transform="matrix(1 0 0 1 160 300)" d="M0 0C 3.3 0 6.6 0 10 0C 10 3.3 10 6.6 10 10C 6.7 10 3.4 10 0 10C 0 6.7 0 3.4 0 0z" stroke="none" fill="#CE9D94" fill-rule="nonzero"/>
			<path transform="matrix(1 0 0 1 140 300)" d="M0 0C 3.3 0 6.6 0 10 0C 10 3.3 10 6.6 10 10C 6.7 10 3.4 10 0 10C 0 6.7 0 3.4 0 0z" stroke="none" fill="#CE9D94" fill-rule="nonzero"/>
			<path transform="matrix(1 0 0 1 130 300)" d="M0 0C 3.3 0 6.6 0 10 0C 10 3.3 10 6.6 10 10C 6.7 10 3.4 10 0 10C 0 6.7 0 3.4 0 0z" stroke="none" fill="#F8DBCB" fill-rule="nonzero"/>
			<path transform="matrix(1 0 0 1 350 290)" d="M0 0C 3.3 0 6.6 0 10 0C 10 3.3 10 6.6 10 10C 6.7 10 3.4 10 0 10C 0 6.7 0 3.4 0 0z" stroke="none" fill="#CE9D94" fill-rule="nonzero"/>
			<path transform="matrix(1 0 0 1 240 290)" d="M0 0C 3.3 0 6.6 0 10 0C 10 3.3 10 6.6 10 10C 6.7 10 3.4 10 0 10C 0 6.7 0 3.4 0 0z" stroke="none" fill="#FCD54A" fill-rule="nonzero"/>
			<path transform="matrix(1 0 0 1 230 290)" d="M0 0C 3.3 0 6.6 0 10 0C 10 3.3 10 6.6 10 10C 6.7 10 3.4 10 0 10C 0 6.7 0 3.4 0 0z" stroke="none" fill="#AC813B" fill-rule="nonzero"/>
			<path transform="matrix(1 0 0 1 120 290)" d="M0 0C 3.3 0 6.6 0 10 0C 10 3.3 10 6.6 10 10C 6.7 10 3.4 10 0 10C 0 6.7 0 3.4 0 0z" stroke="none" fill="#CE9D94" fill-rule="nonzero"/>
			<path transform="matrix(1 0 0 1 370 280)" d="M0 0C 3.3 0 6.6 0 10 0C 10 3.3 10 6.6 10 10C 6.7 10 3.4 10 0 10C 0 6.7 0 3.4 0 0z" stroke="none" fill="#CE9D94" fill-rule="nonzero"/>
			<path transform="matrix(1 0 0 1 340 280)" d="M0 0C 3.3 0 6.6 0 10 0C 10 3.3 10 6.6 10 10C 6.7 10 3.4 10 0 10C 0 6.7 0 3.4 0 0z" stroke="none" fill="#CE9D94" fill-rule="nonzero"/>
			<path transform="matrix(1 0 0 1 280 280)" d="M0 0C 3.3 0 6.6 0 10 0C 10 3.3 10 6.6 10 10C 6.7 10 3.4 10 0 10C 0 6.7 0 3.4 0 0z" stroke="none" fill="#3A3E49" fill-rule="nonzero"/>
			<path transform="matrix(1 0 0 1 190 280)" d="M0 0C 3.3 0 6.6 0 10 0C 10 3.3 10 6.6 10 10C 6.7 10 3.4 10 0 10C 0 6.7 0 3.4 0 0z" stroke="none" fill="#3A3E49" fill-rule="nonzero"/>
			<path transform="matrix(1 0 0 1 130 280)" d="M0 0C 3.3 0 6.6 0 10 0C 10 3.3 10 6.6 10 10C 6.7 10 3.4 10 0 10C 0 6.7 0 3.4 0 0z" stroke="none" fill="#CE9D94" fill-rule="nonzero"/>
			<path transform="matrix(1 0 0 1 100 280)" d="M0 0C 3.3 0 6.6 0 10 0C 10 3.3 10 6.6 10 10C 6.7 10 3.4 10 0 10C 0 6.7 0 3.4 0 0z" stroke="none" fill="#CE9D94" fill-rule="nonzero"/>
			<path transform="matrix(1 0 0 1 440 270)" d="M0 0C 3.3 0 6.6 0 10 0C 10 3.3 10 6.6 10 10C 6.7 10 3.4 10 0 10C 0 6.7 0 3.4 0 0z" stroke="none" fill="#F8DBCB" fill-rule="nonzero"/>
			<path transform="matrix(1 0 0 1 350 270)" d="M0 0C 3.3 0 6.6 0 10 0C 10 3.3 10 6.6 10 10C 6.7 10 3.4 10 0 10C 0 6.7 0 3.4 0 0z" stroke="none" fill="#CE9D94" fill-rule="nonzero"/>
			<path transform="matrix(1 0 0 1 120 270)" d="M0 0C 3.3 0 6.6 0 10 0C 10 3.3 10 6.6 10 10C 6.7 10 3.4 10 0 10C 0 6.7 0 3.4 0 0z" stroke="none" fill="#CE9D94" fill-rule="nonzero"/>
			<path transform="matrix(1 0 0 1 30 270)" d="M0 0C 3.3 0 6.6 0 10 0C 10 3.3 10 6.6 10 10C 6.7 10 3.4 10 0 10C 0 6.7 0 3.4 0 0z" stroke="none" fill="#F8DBCB" fill-rule="nonzero"/>
			<path transform="matrix(1 0 0 1 410 260)" d="M0 0C 3.3 0 6.6 0 10 0C 10 3.3 10 6.6 10 10C 6.7 10 3.4 10 0 10C 0 6.7 0 3.4 0 0z" stroke="none" fill="#F8DBCB" fill-rule="nonzero"/>
			<path transform="matrix(1 0 0 1 350 260)" d="M0 0C 3.3 0 6.6 0 10 0C 10 3.3 10 6.6 10 10C 6.7 10 3.4 10 0 10C 0 6.7 0 3.4 0 0z" stroke="none" fill="#F8DBCB" fill-rule="nonzero"/>
			<path transform="matrix(1 0 0 1 280 260)" d="M0 0C 3.3 0 6.6 0 10 0C 10 3.3 10 6.6 10 10C 6.7 10 3.4 10 0 10C 0 6.7 0 3.4 0 0z" stroke="none" fill="#D87B8A" fill-rule="nonzero"/>
			<path transform="matrix(1 0 0 1 190 260)" d="M0 0C 3.3 0 6.6 0 10 0C 10 3.3 10 6.6 10 10C 6.7 10 3.4 10 0 10C 0 6.7 0 3.4 0 0z" stroke="none" fill="#D87B8A" fill-rule="nonzero"/>
			<path transform="matrix(1 0 0 1 120 260)" d="M0 0C 3.3 0 6.6 0 10 0C 10 3.3 10 6.6 10 10C 6.7 10 3.4 10 0 10C 0 6.7 0 3.4 0 0z" stroke="none" fill="#F8DBCB" fill-rule="nonzero"/>
			<path transform="matrix(1 0 0 1 60 260)" d="M0 0C 3.3 0 6.6 0 10 0C 10 3.3 10 6.6 10 10C 6.7 10 3.4 10 0 10C 0 6.7 0 3.4 0 0z" stroke="none" fill="#F8DBCB" fill-rule="nonzero"/>
			<path transform="matrix(1 0 0 1 380 250)" d="M0 0C 3.3 0 6.6 0 10 0C 10 3.3 10 6.6 10 10C 6.7 10 3.4 10 0 10C 0 6.7 0 3.4 0 0z" stroke="none" fill="#F8DBCB" fill-rule="nonzero"/>
			<path transform="matrix(1 0 0 1 360 250)" d="M0 0C 3.3 0 6.6 0 10 0C 10 3.3 10 6.6 10 10C 6.7 10 3.4 10 0 10C 0 6.7 0 3.4 0 0z" stroke="none" fill="#F8DBCB" fill-rule="nonzero"/>
			<path transform="matrix(1 0 0 1 330 250)" d="M0 0C 3.3 0 6.6 0 10 0C 10 3.3 10 6.6 10 10C 6.7 10 3.4 10 0 10C 0 6.7 0 3.4 0 0z" stroke="none" fill="#CE9D94" fill-rule="nonzero"/>
			<path transform="matrix(1 0 0 1 290 250)" d="M0 0C 3.3 0 6.6 0 10 0C 10 3.3 10 6.6 10 10C 6.7 10 3.4 10 0 10C 0 6.7 0 3.4 0 0z" stroke="none" fill="#D87B8A" fill-rule="nonzero"/>
			<path transform="matrix(1 0 0 1 180 250)" d="M0 0C 3.3 0 6.6 0 10 0C 10 3.3 10 6.6 10 10C 6.7 10 3.4 10 0 10C 0 6.7 0 3.4 0 0z" stroke="none" fill="#D87B8A" fill-rule="nonzero"/>
			<path transform="matrix(1 0 0 1 140 250)" d="M0 0C 3.3 0 6.6 0 10 0C 10 3.3 10 6.6 10 10C 6.7 10 3.4 10 0 10C 0 6.7 0 3.4 0 0z" stroke="none" fill="#CE9D94" fill-rule="nonzero"/>
			<path transform="matrix(1 0 0 1 110 250)" d="M0 0C 3.3 0 6.6 0 10 0C 10 3.3 10 6.6 10 10C 6.7 10 3.4 10 0 10C 0 6.7 0 3.4 0 0z" stroke="none" fill="#F8DBCB" fill-rule="nonzero"/>
			<path transform="matrix(1 0 0 1 90 250)" d="M0 0C 3.3 0 6.6 0 10 0C 10 3.3 10 6.6 10 10C 6.7 10 3.4 10 0 10C 0 6.7 0 3.4 0 0z" stroke="none" fill="#F8DBCB" fill-rule="nonzero"/>
			<path transform="matrix(1 0 0 1 280 220)" d="M0 0C 3.3 0 6.6 0 10 0C 10 3.3 10 6.6 10 10C 6.7 10 3.4 10 0 10C 0 6.7 0 3.4 0 0z" stroke="none" fill="#1A0814" fill-rule="nonzero"/>
			<path transform="matrix(1 0 0 1 190 220)" d="M0 0C 3.3 0 6.6 0 10 0C 10 3.3 10 6.6 10 10C 6.7 10 3.4 10 0 10C 0 6.7 0 3.4 0 0z" stroke="none" fill="#1A0814" fill-rule="nonzero"/>
			<path transform="matrix(1 0 0 1 330 200)" d="M0 0C 3.3 0 6.6 0 10 0C 10 3.3 10 6.6 10 10C 6.7 10 3.4 10 0 10C 0 6.7 0 3.4 0 0z" stroke="none" fill="#242033" fill-rule="nonzero"/>
			<path transform="matrix(1 0 0 1 340 190)" d="M0 0C 3.3 0 6.6 0 10 0C 10 3.3 10 6.6 10 10C 6.7 10 3.4 10 0 10C 0 6.7 0 3.4 0 0z" stroke="none" fill="#242033" fill-rule="nonzero"/>
			<path transform="matrix(1 0 0 1 280 190)" d="M0 0C 3.3 0 6.6 0 10 0C 10 3.3 10 6.6 10 10C 6.7 10 3.4 10 0 10C 0 6.7 0 3.4 0 0z" stroke="none" fill="#242033" fill-rule="nonzero"/>
			<path transform="matrix(1 0 0 1 360 180)" d="M0 0C 3.3 0 6.6 0 10 0C 10 3.3 10 6.6 10 10C 6.7 10 3.4 10 0 10C 0 6.7 0 3.4 0 0z" stroke="none" fill="#242033" fill-rule="nonzero"/>
			<path transform="matrix(1 0 0 1 140 180)" d="M0 0C 3.3 0 6.6 0 10 0C 10 3.3 10 6.6 10 10C 6.7 10 3.4 10 0 10C 0 6.7 0 3.4 0 0z" stroke="none" fill="#242033" fill-rule="nonzero"/>
			<path transform="matrix(1 0 0 1 110 180)" d="M0 0C 3.3 0 6.6 0 10 0C 10 3.3 10 6.6 10 10C 6.7 10 3.4 10 0 10C 0 6.7 0 3.4 0 0z" stroke="none" fill="#242033" fill-rule="nonzero"/>
			<path transform="matrix(1 0 0 1 130 170)" d="M0 0C 3.3 0 6.6 0 10 0C 10 3.3 10 6.6 10 10C 6.7 10 3.4 10 0 10C 0 6.7 0 3.4 0 0z" stroke="none" fill="#242033" fill-rule="nonzero"/>
			<path transform="matrix(1 0 0 1 60 170)" d="M0 0C 3.3 0 6.6 0 10 0C 10 3.3 10 6.6 10 10C 6.7 10 3.4 10 0 10C 0 6.7 0 3.4 0 0z" stroke="none" fill="#D77C8A" fill-rule="nonzero"/>
			<path transform="matrix(1 0 0 1 390 160)" d="M0 0C 3.3 0 6.6 0 10 0C 10 3.3 10 6.6 10 10C 6.7 10 3.4 10 0 10C 0 6.7 0 3.4 0 0z" stroke="none" fill="#D77C8A" fill-rule="nonzero"/>
			<path transform="matrix(1 0 0 1 370 160)" d="M0 0C 3.3 0 6.6 0 10 0C 10 3.3 10 6.6 10 10C 6.7 10 3.4 10 0 10C 0 6.7 0 3.4 0 0z" stroke="none" fill="#D77C8A" fill-rule="nonzero"/>
			<path transform="matrix(1 0 0 1 90 160)" d="M0 0C 3.3 0 6.6 0 10 0C 10 3.3 10 6.6 10 10C 6.7 10 3.4 10 0 10C 0 6.7 0 3.4 0 0z" stroke="none" fill="#D77C8A" fill-rule="nonzero"/>
			<path transform="matrix(1 0 0 1 60 160)" d="M0 0C 3.3 0 6.6 0 10 0C 10 3.3 10 6.6 10 10C 6.7 10 3.4 10 0 10C 0 6.7 0 3.4 0 0z" stroke="none" fill="#FCCCB6" fill-rule="nonzero"/>
			<path transform="matrix(1 0 0 1 390 150)" d="M0 0C 3.3 0 6.6 0 10 0C 10 3.3 10 6.6 10 10C 6.7 10 3.4 10 0 10C 0 6.7 0 3.4 0 0z" stroke="none" fill="#FCCCB6" fill-rule="nonzero"/>
			<path transform="matrix(1 0 0 1 380 150)" d="M0 0C 3.3 0 6.6 0 10 0C 10 3.3 10 6.6 10 10C 6.7 10 3.4 10 0 10C 0 6.7 0 3.4 0 0z" stroke="none" fill="#D77C8A" fill-rule="nonzero"/>
			<path transform="matrix(1 0 0 1 370 150)" d="M0 0C 3.3 0 6.6 0 10 0C 10 3.3 10 6.6 10 10C 6.7 10 3.4 10 0 10C 0 6.7 0 3.4 0 0z" stroke="none" fill="#FCCCB6" fill-rule="nonzero"/>
			<path transform="matrix(1 0 0 1 300 150)" d="M0 0C 3.3 0 6.6 0 10 0C 10 3.3 10 6.6 10 10C 6.7 10 3.4 10 0 10C 0 6.7 0 3.4 0 0z" stroke="none" fill="#FDFDFD" fill-rule="nonzero"/>
			<path transform="matrix(1 0 0 1 80 150)" d="M0 0C 3.3 0 6.6 0 10 0C 10 3.3 10 6.6 10 10C 6.7 10 3.4 10 0 10C 0 6.7 0 3.4 0 0z" stroke="none" fill="#D77C8A" fill-rule="nonzero"/>
			<path transform="matrix(1 0 0 1 380 140)" d="M0 0C 3.3 0 6.6 0 10 0C 10 3.3 10 6.6 10 10C 6.7 10 3.4 10 0 10C 0 6.7 0 3.4 0 0z" stroke="none" fill="#242033" fill-rule="nonzero"/>
			<path transform="matrix(1 0 0 1 290 140)" d="M0 0C 3.3 0 6.6 0 10 0C 10 3.3 10 6.6 10 10C 6.7 10 3.4 10 0 10C 0 6.7 0 3.4 0 0z" stroke="none" fill="#FDFDFD" fill-rule="nonzero"/>
			<path transform="matrix(1 0 0 1 390 130)" d="M0 0C 3.3 0 6.6 0 10 0C 10 3.3 10 6.6 10 10C 6.7 10 3.4 10 0 10C 0 6.7 0 3.4 0 0z" stroke="none" fill="#242033" fill-rule="nonzero"/>
			<path transform="matrix(1 0 0 1 240 130)" d="M0 0C 3.3 0 6.6 0 10 0C 10 3.3 10 6.6 10 10C 6.7 10 3.4 10 0 10C 0 6.7 0 3.4 0 0z" stroke="none" fill="#59636E" fill-rule="nonzero"/>
			<path transform="matrix(1 0 0 1 150 130)" d="M0 0C 3.3 0 6.6 0 10 0C 10 3.3 10 6.6 10 10C 6.7 10 3.4 10 0 10C 0 6.7 0 3.4 0 0z" stroke="none" fill="#59636E" fill-rule="nonzero"/>
			<path transform="matrix(1 0 0 1 70 130)" d="M0 0C 3.3 0 6.6 0 10 0C 10 3.3 10 6.6 10 10C 6.7 10 3.4 10 0 10C 0 6.7 0 3.4 0 0z" stroke="none" fill="#242033" fill-rule="nonzero"/>
			<path transform="matrix(1 0 0 1 410 120)" d="M0 0C 3.3 0 6.6 0 10 0C 10 3.3 10 6.6 10 10C 6.7 10 3.4 10 0 10C 0 6.7 0 3.4 0 0z" stroke="none" fill="#59636E" fill-rule="nonzero"/>
			<path transform="matrix(1 0 0 1 140 120)" d="M0 0C 3.3 0 6.6 0 10 0C 10 3.3 10 6.6 10 10C 6.7 10 3.4 10 0 10C 0 6.7 0 3.4 0 0z" stroke="none" fill="#59636E" fill-rule="nonzero"/>
			<path transform="matrix(1 0 0 1 90 120)" d="M0 0C 3.3 0 6.6 0 10 0C 10 3.3 10 6.6 10 10C 6.7 10 3.4 10 0 10C 0 6.7 0 3.4 0 0z" stroke="none" fill="#59636E" fill-rule="nonzero"/>
			<path transform="matrix(1 0 0 1 350 110)" d="M0 0C 3.3 0 6.6 0 10 0C 10 3.3 10 6.6 10 10C 6.7 10 3.4 10 0 10C 0 6.7 0 3.4 0 0z" stroke="none" fill="#59636E" fill-rule="nonzero"/>
			<path transform="matrix(1 0 0 1 310 110)" d="M0 0C 3.3 0 6.6 0 10 0C 10 3.3 10 6.6 10 10C 6.7 10 3.4 10 0 10C 0 6.7 0 3.4 0 0z" stroke="none" fill="#121212" fill-rule="nonzero"/>
			<path transform="matrix(1 0 0 1 250 110)" d="M0 0C 3.3 0 6.6 0 10 0C 10 3.3 10 6.6 10 10C 6.7 10 3.4 10 0 10C 0 6.7 0 3.4 0 0z" stroke="none" fill="#59636E" fill-rule="nonzero"/>
			<path transform="matrix(1 0 0 1 160 110)" d="M0 0C 3.3 0 6.6 0 10 0C 10 3.3 10 6.6 10 10C 6.7 10 3.4 10 0 10C 0 6.7 0 3.4 0 0z" stroke="none" fill="#323232" fill-rule="nonzero"/>
			<path transform="matrix(1 0 0 1 80 110)" d="M0 0C 3.3 0 6.6 0 10 0C 10 3.3 10 6.6 10 10C 6.7 10 3.4 10 0 10C 0 6.7 0 3.4 0 0z" stroke="none" fill="#59636E" fill-rule="nonzero"/>
			<path transform="matrix(1 0 0 1 350 100)" d="M0 0C 3.3 0 6.6 0 10 0C 10 3.3 10 6.6 10 10C 6.7 10 3.4 10 0 10C 0 6.7 0 3.4 0 0z" stroke="none" fill="#3A3E49" fill-rule="nonzero"/>
			<path transform="matrix(1 0 0 1 260 100)" d="M0 0C 3.3 0 6.6 0 10 0C 10 3.3 10 6.6 10 10C 6.7 10 3.4 10 0 10C 0 6.7 0 3.4 0 0z" stroke="none" fill="#59636E" fill-rule="nonzero"/>
			<path transform="matrix(1 0 0 1 130 100)" d="M0 0C 3.3 0 6.6 0 10 0C 10 3.3 10 6.6 10 10C 6.7 10 3.4 10 0 10C 0 6.7 0 3.4 0 0z" stroke="none" fill="#59636E" fill-rule="nonzero"/>
			<path transform="matrix(1 0 0 1 270 90)" d="M0 0C 3.3 0 6.6 0 10 0C 10 3.3 10 6.6 10 10C 6.7 10 3.4 10 0 10C 0 6.7 0 3.4 0 0z" stroke="none" fill="#59636E" fill-rule="nonzero"/>
			<path transform="matrix(1 0 0 1 120 90)" d="M0 0C 3.3 0 6.6 0 10 0C 10 3.3 10 6.6 10 10C 6.7 10 3.4 10 0 10C 0 6.7 0 3.4 0 0z" stroke="none" fill="#59636E" fill-rule="nonzero"/>
			<path transform="matrix(1 0 0 1 190 80)" d="M0 0C 3.3 0 6.6 0 10 0C 10 3.3 10 6.6 10 10C 6.7 10 3.4 10 0 10C 0 6.7 0 3.4 0 0z" stroke="none" fill="#F8DBCB" fill-rule="nonzero"/>
			<path transform="matrix(1 0 0 1 300 70)" d="M0 0C 3.3 0 6.6 0 10 0C 10 3.3 10 6.6 10 10C 6.7 10 3.4 10 0 10C 0 6.7 0 3.4 0 0z" stroke="none" fill="#59636E" fill-rule="nonzero"/>
			<path transform="matrix(1 0 0 1 260 70)" d="M0 0C 3.3 0 6.6 0 10 0C 10 3.3 10 6.6 10 10C 6.7 10 3.4 10 0 10C 0 6.7 0 3.4 0 0z" stroke="none" fill="#F8DBCB" fill-rule="nonzero"/>
			<path transform="matrix(1 0 0 1 170 70)" d="M0 0C 3.3 0 6.6 0 10 0C 10 3.3 10 6.6 10 10C 6.7 10 3.4 10 0 10C 0 6.7 0 3.4 0 0z" stroke="none" fill="#59636E" fill-rule="nonzero"/>
			<path transform="matrix(1 0 0 1 250 60)" d="M0 0C 3.3 0 6.6 0 10 0C 10 3.3 10 6.6 10 10C 6.7 10 3.4 10 0 10C 0 6.7 0 3.4 0 0z" stroke="none" fill="#F8DBCB" fill-rule="nonzero"/>
			<path transform="matrix(1 0 0 1 230 60)" d="M0 0C 3.3 0 6.6 0 10 0C 10 3.3 10 6.6 10 10C 6.7 10 3.4 10 0 10C 0 6.7 0 3.4 0 0z" stroke="none" fill="#F8DBCB" fill-rule="nonzero"/>
			<path transform="matrix(1 0 0 1 210 60)" d="M0 0C 3.3 0 6.6 0 10 0C 10 3.3 10 6.6 10 10C 6.7 10 3.4 10 0 10C 0 6.7 0 3.4 0 0z" stroke="none" fill="#FDFDFD" fill-rule="nonzero"/>
			<path transform="matrix(1 0 0 1 320 50)" d="M0 0C 3.3 0 6.6 0 10 0C 10 3.3 10 6.6 10 10C 6.7 10 3.4 10 0 10C 0 6.7 0 3.4 0 0z" stroke="none" fill="#242033" fill-rule="nonzero"/>
			<path transform="matrix(1 0 0 1 220 50)" d="M0 0C 3.3 0 6.6 0 10 0C 10 3.3 10 6.6 10 10C 6.7 10 3.4 10 0 10C 0 6.7 0 3.4 0 0z" stroke="none" fill="#F8DBCB" fill-rule="nonzero"/>
			<path transform="matrix(1 0 0 1 150 50)" d="M0 0C 3.3 0 6.6 0 10 0C 10 3.3 10 6.6 10 10C 6.7 10 3.4 10 0 10C 0 6.7 0 3.4 0 0z" stroke="none" fill="#242033" fill-rule="nonzero"/>
			<path transform="matrix(1 0 0 1 250 30)" d="M0 0C 3.3 0 6.6 0 10 0C 10 3.3 10 6.6 10 10C 6.7 10 3.4 10 0 10C 0 6.7 0 3.4 0 0z" stroke="none" fill="#AC813B" fill-rule="nonzero"/>
			<path transform="matrix(1 0 0 1 240 30)" d="M0 0C 3.3 0 6.6 0 10 0C 10 3.3 10 6.6 10 10C 6.7 10 3.4 10 0 10C 0 6.7 0 3.4 0 0z" stroke="none" fill="#E1AB30" fill-rule="nonzero"/>
			<path transform="matrix(1 0 0 1 300 10)" d="M0 0C 3.3 0 6.6 0 10 0C 10 3.3 10 6.6 10 10C 6.7 10 3.4 10 0 10C 0 6.7 0 3.4 0 0z" stroke="none" fill="#F0E6DA" fill-rule="nonzero"/>
			<path transform="matrix(1 0 0 1 290 10)" d="M0 0C 3.3 0 6.6 0 10 0C 10 3.3 10 6.6 10 10C 6.7 10 3.4 10 0 10C 0 6.7 0 3.4 0 0z" stroke="none" fill="#FCD54A" fill-rule="nonzero"/>
			<path transform="matrix(1 0 0 1 260 0)" d="M0 0C 3.3 0 6.6 0 10 0C 10 3.3 10 6.6 10 10C 6.7 10 3.4 10 0 10C 0 6.7 0 3.4 0 0z" stroke="none" fill="#F0E6DA" fill-rule="nonzero"/>
		</g>
	</g>
</svg>